<?xml version="1.0" standalone="no"?>
<!DOCTYPE svg PUBLIC "-//W3C//DTD SVG 1.1//EN" "http://www.w3.org/Graphics/SVG/1.1/DTD/svg11.dtd" >
<svg xmlns="http://www.w3.org/2000/svg">
<metadata>
Created by FontForge 20120731 at Tue Jan 26 11:30:32 2016
 By Ads
</metadata>
<defs>
<font id="qky_icon" horiz-adv-x="1024" >
  <font-face 
    font-family="qky_icon"
    font-weight="500"
    font-stretch="normal"
    units-per-em="1024"
    panose-1="2 0 6 3 0 0 0 0 0 0"
    ascent="896"
    descent="-128"
    x-height="792"
    bbox="0 -224 1133 896"
    underline-thickness="50"
    underline-position="-100"
    unicode-range="U+0078-E6A2"
  />
<missing-glyph horiz-adv-x="374" 
d="M34 0v682h272v-682h-272zM68 34h204v614h-204v-614z" />
    <glyph glyph-name=".notdef" horiz-adv-x="374" 
d="M34 0v682h272v-682h-272zM68 34h204v614h-204v-614z" />
    <glyph glyph-name=".null" horiz-adv-x="0" 
 />
    <glyph glyph-name="nonmarkingreturn" horiz-adv-x="341" 
 />
    <glyph glyph-name="x" unicode="x" horiz-adv-x="1001" 
d="M281 543q-27 -1 -53 -1h-83q-18 0 -36.5 -6t-32.5 -18.5t-23 -32t-9 -45.5v-76h912v41q0 16 -0.5 30t-0.5 18q0 13 -5 29t-17 29.5t-31.5 22.5t-49.5 9h-133v-97h-438v97zM955 310v-52q0 -23 0.5 -52t0.5 -58t-10.5 -47.5t-26 -30t-33 -16t-31.5 -4.5q-14 -1 -29.5 -0.5
t-29.5 0.5h-32l-45 128h-439l-44 -128h-29h-34q-20 0 -45 1q-25 0 -41 9.5t-25.5 23t-13.5 29.5t-4 30v167h911zM163 247q-12 0 -21 -8.5t-9 -21.5t9 -21.5t21 -8.5q13 0 22 8.5t9 21.5t-9 21.5t-22 8.5zM316 123q-8 -26 -14 -48q-5 -19 -10.5 -37t-7.5 -25t-3 -15t1 -14.5
t9.5 -10.5t21.5 -4h37h67h81h80h64h36q23 0 34 12t2 38q-5 13 -9.5 30.5t-9.5 34.5q-5 19 -11 39h-368zM336 498v228q0 11 2.5 23t10 21.5t20.5 15.5t34 6h188q31 0 51.5 -14.5t20.5 -52.5v-227h-327z" />
    <glyph glyph-name="uniE600" unicode="&#xe600;" horiz-adv-x="1000" 
d="M405 -57h219v110h-219v-110zM897 709h-765q-23 0 -39 -16t-16 -39v-492q0 -22 16 -38.5t39 -16.5h765q23 0 39 16.5t16 38.5v492q0 11 -4.5 21.5t-12 17.5t-17.5 11.5t-21 4.5zM569 162h-109v55h109v-55zM897 272h-765v382h765v-382z" />
    <glyph glyph-name="uniE601" unicode="&#xe601;" 
d="M893 668h-762q-20 0 -34.5 -14t-14.5 -35v-515q0 -21 14.5 -35t34.5 -14h350v-63h62v63h350q20 0 34.5 14t14.5 35v515q0 10 -4 19t-10.5 16t-15.5 10.5t-19 3.5zM891 107h-758v132h758v-132zM133 290v327h758v-327h-758zM480 204h64v-62h-64v62zM390 -7q-6 0 -12 -2.5
t-10 -6.5t-7 -9.5t-3 -12.5q0 -12 9 -21t22 -9h246q13 0 22 9t9 21.5t-9.5 21.5t-22.5 9h-244z" />
    <glyph glyph-name="uniE602" unicode="&#xe602;" 
d="M916 748h-806q-20 0 -36 -9.5t-25.5 -26t-9.5 -35.5v-582q0 -30 20.5 -50.5t50.5 -20.5h332v-128h-108q-11 0 -18.5 -7.5t-7.5 -18t7.5 -18t18.5 -7.5h358q7 0 13 3.5t9.5 9.5t3.5 13t-3.5 12.5t-9.5 9t-13 3.5h-109v128h333q29 0 49.5 20.5t20.5 50.5v582q0 29 -20.5 50
t-49.5 21zM110 696h806q5 0 9.5 -2.5t7 -7t2.5 -9.5v-467h-845v467q0 8 6 13.5t14 5.5zM532 -104h-38v128h38v-128zM916 75h-806q-8 0 -14 6t-6 14v64h845v-64q0 -17 -16 -19q-2 -1 -3 -1z" />
    <glyph glyph-name="uniE603" unicode="&#xe603;" 
d="M948 754h-872q-30 0 -51 -21.5t-21 -51.5v-617q0 -30 21 -51.5t51 -21.5h336q-17 -9 -33 -19.5t-27.5 -19.5t-20.5 -17t-14 -12l-5 -4q-14 0 -27 -5t-20 -13.5t-7 -18.5q0 -15 16 -25.5t38 -10.5h436q6 0 12.5 1t11.5 3t10 4.5t8.5 5.5t6.5 6.5t4 7.5t1 8q0 15 -15.5 26
t-38.5 11q-41 41 -97 72h297q30 0 51 21.5t21 51.5v617q0 30 -21 51.5t-51 21.5zM948 282q0 -30 -21.5 -51.5t-51.5 -21.5h-726q-30 0 -51.5 21.5t-21.5 51.5v327q0 30 21.5 51t51.5 21h726q30 0 51.5 -21t21.5 -51v-327z" />
    <glyph glyph-name="uniE604" unicode="&#xe604;" 
d="M510 741q-71 0 -138.5 -22.5t-121.5 -63t-94.5 -94.5t-63 -121.5t-22.5 -138.5q0 -90 35 -171.5t94 -140.5t140.5 -94t171 -35t171 35t140.5 94t93.5 140.5t34.5 171.5q0 59 -15.5 116t-44 105.5t-69 89t-89 69t-105.5 44.5t-117 16zM510.5 -91q-106.5 0 -196.5 52.5
t-142.5 142.5t-52.5 196.5t52.5 196.5t142.5 142.5t196 52.5q64 0 124 -19.5t108 -56t84.5 -84.5t56 -108t19.5 -123q0 -107 -52.5 -197t-142.5 -142.5t-196.5 -52.5zM757 555h-490q-17 0 -29 -12t-12 -28v-348q0 -11 5.5 -20.5t15 -15t20.5 -5.5h148q17 0 19.5 -7
t-11.5 -17l-42 -33q-14 -10 -11.5 -17t19.5 -7h256q17 0 20 7.5t-10 18.5l-34 29q-13 11 -10 18.5t20 7.5h126q17 0 29 12t12 29v348q0 16 -12 28t-29 12zM757 290q0 -17 -12 -29t-29 -12h-408q-11 0 -20.5 5.5t-15 15t-5.5 20.5v184q0 17 12 29t29 12h408q17 0 29 -12
t12 -29v-144v-40zM757 290zM528 181q0 -5 -2.5 -8.5t-6 -5.5t-7.5 -2q-6 0 -10.5 4.5t-4.5 11.5q0 4 2 7.5t5.5 5.5t7.5 2q14 -2 16 -15zM742 527h-459q-16 0 -27.5 -11.5t-11.5 -27.5v-268v-38q0 -16 11.5 -27t27.5 -11h191v-58h-96q-8 0 -13.5 -5.5t-5.5 -13.5v-19h307v19
q0 3 -1 6t-3 5.5t-4.5 4t-5 2.5t-6.5 1h-95v58h191q16 0 27.5 11t11.5 27v38v268q0 16 -11.5 27.5t-27.5 11.5zM493 182q0 8 5.5 13.5t13.5 5.5t14 -5.5t6 -13.5t-6 -13.5t-14 -5.5q-5 0 -9.5 2.5t-7 7t-2.5 9.5zM283 220v268h459v-268h-459zM283 220z" />
    <glyph glyph-name="uniE605" unicode="&#xe605;" 
d="M192 621h641v-449h-641v449zM869 750h-713q-38 0 -65 -27t-27 -65v-521q0 -38 27 -65.5t65 -27.5h224v-127h-157q-7 0 -13 -2.5t-10 -7t-6.5 -10.5t-2.5 -12q0 -13 9 -22.5t23 -9.5h578q3 0 7 1t7 2.5t5.5 3.5t5 5t4 6t2.5 6.5t1 7.5q0 6 -2.5 12t-7 10.5t-10.5 7
t-12 2.5h-160v127h228q38 0 65 27.5t27 65.5v521q0 38 -27 65t-65 27zM899 107h-771v578h771v-578zM899 107z" />
    <glyph glyph-name="uniE606" unicode="&#xe606;" 
d="M494 12h38v-128h-38v128zM916 736h-806q-15 0 -28 -6t-22.5 -15t-15 -22.5t-5.5 -27.5v-582q0 -30 20.5 -50.5t50.5 -20.5h332v-128h-108q-6 0 -10.5 -2t-8 -5.5t-5.5 -8t-2 -9.5q0 -11 7.5 -18.5t18.5 -7.5h358q5 0 10 2t8.5 5.5t5.5 8t2 10.5q0 7 -3.5 12.5t-9.5 9
t-13 3.5h-109v128h333q29 0 49.5 20.5t20.5 50.5v582q0 19 -9 35.5t-25.5 26t-35.5 9.5zM532 -116h-38v128h38v-128zM935 147h-845v51h845v-51z" />
    <glyph glyph-name="uniE607" unicode="&#xe607;" 
d="M952 26h-880q-28 0 -48 20t-20 48v578q0 28 20 48.5t48 20.5h880q19 0 35 -9.5t25 -25t9 -34.5v-578q0 -28 -20 -48t-49 -20zM72 700q-5 0 -10.5 -2.5t-9 -6t-5.5 -8.5t-2 -11v-578q0 -11 8 -19t19 -8h880q12 0 20 8t8 19v578q0 6 -2 11t-6 8.5t-9 6t-11 2.5h-880z
M461 43h103v-202h-103v202zM696 -178h-367v22q0 10 3 19.5t9 17t13.5 13t16.5 8.5t19 3h245q17 0 31 -8t22 -22t8 -31v-22zM27 195h968v-41h-968v41zM513 108zM485 108q0 22 20 28q5 1 8 1q8 0 14.5 -4t10.5 -10.5t4 -14.5q0 -5 -2.5 -10.5t-6.5 -9t-9 -6t-11 -2.5
q-12 0 -20 8.5t-8 19.5z" />
    <glyph glyph-name="uniE608" unicode="&#xe608;" 
d="M765 149h-532q-37 0 -63 26t-26 63v295q0 37 26 63t63 26h532q36 0 62 -26t26 -63v-295q0 -24 -11.5 -44.5t-32 -32.5t-44.5 -12zM255 46h158l19 29q0 12 9 21t21 9h74q12 0 20.5 -9t8.5 -21l20 -29h158q4 0 8 -2t7 -5t5 -7t2 -8q0 -10 -6.5 -16.5t-15.5 -6.5h-488
q-4 0 -8 2t-7 5t-5 7t-2 9q0 9 6.5 15.5t15.5 6.5z" />
    <glyph glyph-name="uniE609" unicode="&#xe609;" 
d="M926 287v503q0 8 -3 15.5t-7.5 12.5t-11.5 8t-14 3h-759q-4 0 -7.5 -0.5t-6.5 -2t-6 -4t-5.5 -5t-4.5 -5.5t-3 -6.5t-2 -7.5t-1 -8v-503h831zM95 285v-77q0 -17 11.5 -28t29.5 -11h759q11 0 21 11.5t10 27.5v77h-831zM565 162v-136h-109v136h109zM580 84q42 -10 67.5 -29
t25.5 -42v1q0 -21 -21.5 -39t-59 -28.5t-81.5 -10.5q-68 0 -115.5 23t-47.5 55q0 23 25.5 41.5t67.5 28.5h139z" />
    <glyph glyph-name="uniE60A" unicode="&#xe60a;" 
d="M831 106h-194v-111h55q8 0 14.5 -3.5t10 -10t3.5 -14t-3.5 -14t-10 -10t-14.5 -3.5h-333q-11 0 -19 8t-8 20q0 7 3.5 13.5t10 10t13.5 3.5h56v111h-222q-46 0 -78.5 33t-32.5 78v500q0 46 32.5 78.5t78.5 32.5h638q30 0 55.5 -15t40.5 -40.5t15 -55.5v-500
q0 -18 -5.5 -34.5t-16 -30.5t-24 -24t-30.5 -16t-35 -6zM887 273h-750v-56q0 -22 16.5 -38.5t39.5 -16.5h638q23 0 39.5 16.5t16.5 38.5v56z" />
    <glyph glyph-name="uniE60B" unicode="&#xe60b;" 
d="M967 137h-389v-108h94q3 0 6.5 -1.5t5 -4.5t1.5 -7v-27q0 -2 -0.5 -4t-2.5 -3l-2 -4q-2 -1 -4 -1.5t-4 -0.5h-350q-5 0 -9 4t-4 9v27q0 6 4 9.5t9 3.5h95v108h-363q-11 0 -19 8t-8 19v604q0 11 8 19t19 8h913q5 0 9 -1t7.5 -3.5t6 -6t3.5 -7.5t1 -9v-604q0 -6 -2 -11
t-5.5 -8.5t-8.5 -5.5t-11 -2zM954 741q0 6 -4 10t-9 4h-860q-6 0 -10 -4t-4 -10v-550q0 -6 4 -10t10 -4h860q5 0 9 4t4 10v550zM914 204h-806q-6 0 -10 4t-4 10v497q0 5 4 9t10 4h806q5 0 9 -4t4 -9v-497q0 -6 -4 -10t-9 -4z" />
    <glyph glyph-name="uniE60C" unicode="&#xe60c;" 
d="M927 815h-833q-4 0 -8.5 -1t-7.5 -3.5t-5.5 -6t-4 -7.5t-1.5 -8v-632q0 -11 8 -19t19 -8h322v-121h-94q-5 0 -9 -3.5t-4 -9.5v-27q0 -4 2 -7t5 -4.5t6 -1.5h350q5 0 9 4t4 9v27q0 6 -4 9.5t-9 3.5h-94v121h349q11 0 19 8t8 19v632q0 11 -8 18.5t-19 7.5zM913 184
q0 -4 -1.5 -7t-4.5 -4.5t-7 -1.5h-779q-6 0 -10 3.5t-4 9.5v578q0 2 1 4t2 3.5t3 3t4 2t4 0.5h779q6 0 9.5 -4t3.5 -9v-578zM873 748h-725q-6 0 -10 -4t-4 -9v-524q0 -6 4 -10t10 -4h725q12 2 14 14v524q0 3 -2 6.5t-5 5t-7 1.5z" />
    <glyph glyph-name="uniE60D" unicode="&#xe60d;" 
d="M472 407q0 -16 -6 -31t-16.5 -25.5t-25.5 -16.5t-31 -6h-197q-33 0 -56.5 23t-23.5 56v197q0 33 23.5 56.5t56.5 23.5h197q33 0 56 -23.5t23 -56.5v-197zM908 407q0 -33 -23.5 -56t-56.5 -23h-197q-16 0 -31 6t-25.5 16.5t-16.5 25.5t-6 31v197q0 33 23 56.5t56 23.5h197
q33 0 56.5 -23.5t23.5 -56.5v-197zM908 -28q0 -33 -23.5 -56.5t-56.5 -23.5h-197q-10 0 -18.5 2.5t-16.5 6t-15 9t-12 12.5t-9 15t-6 16.5t-2 18.5v197q0 33 23 56t56 23h197q33 0 56.5 -23t23.5 -56v-197zM472 -28q0 -16 -6 -31t-16.5 -25.5t-25.5 -17t-31 -6.5h-197
q-33 0 -56.5 23.5t-23.5 56.5v197q0 33 23.5 56t56.5 23h197q33 0 56 -23t23 -56v-197z" />
    <glyph glyph-name="uniE60E" unicode="&#xe60e;" 
d="M382 749q27 0 46 -18.5t19 -45.5v-256q0 -26 -19 -45q-5 -5 -10 -8.5t-11 -6t-12 -3.5t-13 -1h-255q-27 0 -45.5 19t-18.5 45v256q0 13 4.5 24.5t14.5 20.5q18 19 45 19h255v0zM382 237q9 0 17 -2t15 -6t14 -10q19 -19 19 -45v-256q0 -9 -2.5 -17t-6.5 -15t-10.5 -13.5
t-13.5 -10.5t-15 -6t-17 -2h-255q-27 0 -45.5 18.5t-18.5 45.5v256q0 26 19 45q6 6 13 10t15 6t17 2h255v0zM894 749q27 0 45.5 -18.5t18.5 -45.5v-256q0 -26 -18.5 -45t-45.5 -19h-255q-27 0 -46 19t-19 45v256q0 4 0.5 8.5t2 8.5t3 7.5t3.5 7.5t4.5 7t5.5 6q5 5 10 8.5
t11 6t12 3.5t13 1h255v0zM894 237q14 0 25 -4.5t20 -13.5q19 -19 19 -45v-256q0 -13 -4.5 -24.5t-14.5 -20.5q-18 -19 -45 -19h-255q-27 0 -46 18.5t-19 45.5v256q0 26 19 45q5 4 10 7.5t11 6t12 3.5t13 1h255v0zM894 237z" />
    <glyph glyph-name="uniE60F" unicode="&#xe60f;" 
d="M744 7q0 -24 -15 -41t-36 -17h-362q-21 0 -36 17t-15 41v583q0 16 7 29.5t18.5 21t25.5 7.5h362q21 0 36 -17t15 -41v-583zM585 628h-146q-6 0 -10 -4.5t-4 -10.5t4 -10t10 -4h146q3 0 5.5 1t4.5 3t3 4.5t1 5.5q0 6 -4 10.5t-10 4.5zM701 547q0 12 -8 20.5t-19 8.5h-324
q-11 0 -19 -8.5t-8 -20.5v-232q0 -12 8 -20.5t19 -8.5h324q11 0 19 8.5t8 20.5v232zM563 229q0 12 -8.5 20.5t-20.5 8.5h-43q-12 0 -20.5 -8.5t-8.5 -20.5v-15q0 -12 8.5 -20.5t20.5 -8.5h43q12 0 20.5 8.5t8.5 20.5v15zM431 227q0 3 -2 6t-5 4.5t-7 1.5h-73q-6 0 -10 -3.5
t-4 -8.5v-11q0 -5 4 -8.5t10 -3.5h73q6 0 10 3.5t4 8.5v11zM696 227q0 2 -0.5 4t-2 3t-3 2.5t-4 2t-4.5 0.5h-73q-6 0 -10 -3.5t-4 -8.5v-11q0 -3 1 -5t3 -3.5t4.5 -2.5t5.5 -1h73q6 0 10 3.5t4 8.5v11zM430 150q0 5 -4 8.5t-10 3.5h-73q-14 0 -14 -12v-12q0 -11 14 -11h73
q2 0 4.5 0.5t4 1.5t3 2.5t2 3t0.5 3.5v12zM695 150q-1 10 -14 12h-73q-3 0 -5.5 -1t-4.5 -2.5t-3 -4t-1 -4.5v-12q0 -2 0.5 -3.5t2 -3t3 -2.5t4 -1.5t4.5 -0.5h73q6 0 10 3.5t4 7.5v12zM563 150q0 5 -4 8.5t-10 3.5h-73q-3 0 -5.5 -1t-4.5 -2.5t-3 -4t-1 -4.5v-12
q0 -2 0.5 -3.5t2 -3t3 -2.5t4 -1.5t4.5 -0.5h73q6 0 10 3.5t4 7.5v12zM431 86q0 5 -4.5 8.5t-10.5 3.5h-72q-4 0 -7.5 -1.5t-5.5 -4t-2 -6.5v-11q0 -5 4.5 -8.5t10.5 -3.5h72q6 0 10.5 3.5t4.5 8.5v11zM696 86q0 2 -1 4t-2.5 3.5t-3 2.5t-4 1.5t-4.5 0.5h-73q-6 0 -10 -3.5
t-4 -8.5v-11q0 -2 0.5 -4t2 -3t3.5 -2.5t4 -2t4 -0.5h73q4 0 7.5 1.5t5.5 4.5t2 6v11zM563 86q0 3 -1 5t-3 3.5t-4.5 2.5t-5.5 1h-73q-6 0 -10 -3.5t-4 -8.5v-11q0 -5 4 -8.5t10 -3.5h73q4 0 7.5 1.5t5 4.5t1.5 6v11zM431 23q0 3 -2 5.5t-5.5 4.5t-7.5 2h-72
q-6 0 -10.5 -3.5t-4.5 -8.5v-12q0 -4 4.5 -7.5t10.5 -3.5h72q6 0 10.5 3.5t4.5 7.5v12zM696 23q-2 10 -15 12h-72q-6 0 -10.5 -3.5t-4.5 -8.5v-12q0 -2 1.5 -4t3 -3.5t4.5 -2.5t6 -1h72q6 0 10.5 3.5t4.5 7.5v12zM564 23q-2 10 -15 12h-72q-6 0 -10.5 -3.5t-4.5 -8.5v-12
q0 -4 4.5 -7.5t10.5 -3.5h72q6 0 10.5 3.5t4.5 7.5v12z" />
    <glyph glyph-name="uniE610" unicode="&#xe610;" 
d="M714 747h-433q-5 0 -9 -1.5t-7 -4.5t-4.5 -7.5t-1.5 -8.5v-844q0 -9 6.5 -15.5t15.5 -6.5h433q9 0 15.5 6.5t6.5 15.5v844q0 9 -6.5 15.5t-15.5 6.5zM497.5 -75q-16.5 0 -27.5 11.5t-11 27.5t11 27.5t27.5 11.5t27.5 -11.5t11 -27.5t-11 -27.5t-27.5 -11.5zM681 59h-367
v622h367v-622z" />
    <glyph glyph-name="uniE611" unicode="&#xe611;" 
d="M521 476q-9 9 -22 9h-1h-1l-132 -10q-11 -1 -19 -9t-9 -19l-10 -132v-5q0 -3 1 -5.5t2 -4.5t2.5 -4.5t3.5 -4.5l228 -228q9 -8 22 -8t21 8l142 142q8 9 8 21.5t-8 21.5zM460 352q-6 -6 -13 -9t-15 -3q-17 0 -29 12q-6 6 -9 13t-3 15q0 17 12 29q6 6 13 9t16 3
q16 0 28 -12q3 -3 5 -6.5t3.5 -7t2.5 -7t1 -8.5q0 -8 -3 -15t-9 -13zM934 460.5q-26 68.5 -72 125t-104.5 93.5t-125.5 56.5t-139.5 16t-141 -29.5t-125 -72t-93.5 -104.5t-56.5 -125.5t-16 -139.5t29.5 -141.5q16 -43 40.5 -81.5t55 -70t66.5 -57t75 -43t82 -27.5
t86.5 -11.5t88.5 5.5t89 24q68 26 124.5 72t93.5 104.5t56.5 125.5t16 139.5t-29.5 141zM763 191l-142 -142q-7 -7 -16 -11t-19 -4q-21 0 -36 15l-228 228q-17 17 -15 40l10 131q1 8 3.5 14.5t7 12t10 10t12 7t14.5 3.5l131 10q23 2 40 -15l228 -228q15 -15 15 -36t-15 -35z
M432 401q-5 0 -8.5 -1.5t-6.5 -4.5q-1 -2 -2 -3.5t-2 -3.5t-1.5 -4t-0.5 -4q0 -8 6 -14q3 -2 7 -3.5t7.5 -1.5t7.5 1.5t7 4t4.5 6t1.5 7.5q0 2 -0.5 4t-1.5 4t-2 3.5t-2 3.5q-6 6 -14 6z" />
    <glyph glyph-name="uniE612" unicode="&#xe612;" 
d="M736 390zM420.5 414q-9.5 0 -16 -6.5t-6.5 -16t7 -16.5q2 -2 5.5 -4t7 -2.5t7 0t6.5 2.5l6 4q7 7 7 16.5t-7 16t-16.5 6.5zM522 499q-10 10 -25 10h-2l-149 -11q-8 -1 -15.5 -5t-11.5 -11.5t-5 -15.5l-11 -149q-2 -16 10 -27l258 -258q6 -6 15 -8.5t18 0t16 8.5l160 160
q7 7 9 16t0 18t-9 15zM453 359q-4 -4 -9.5 -7t-11 -4.5t-11.5 -1.5q-9 0 -17.5 3.5t-14.5 9.5q-14 13 -14 32t13.5 32.5t32.5 13.5q6 0 11.5 -1.5t11 -4.5t9.5 -7.5t7 -9.5t4.5 -11t1.5 -12q0 -19 -13 -32zM990.5 482q-29.5 78 -81.5 142t-118.5 106t-142.5 63.5t-158 18
t-160 -33t-142 -81.5t-106 -118.5t-63.5 -142.5t-18 -158t33 -160t81.5 -142t118.5 -106t142.5 -63.5t158 -18t160 33t142 81.5t106 118.5t63.5 142.5t18 158t-33 160zM796 176l-160 -160q-17 -17 -41 -17q-11 0 -21.5 4.5t-18.5 12.5l-258 258q-19 19 -17 45l11 149
q2 21 17 36t36 17l149 11q26 2 45 -17l258 -258q17 -16 17 -40t-17 -41z" />
    <glyph glyph-name="uniE613" unicode="&#xe613;" 
d="M907 11h-462q-13 0 -22 -9t-9 -22t9 -22.5t22 -9.5h462q13 0 22 9.5t9 22.5q0 23 -22 30q-5 1 -9 1zM907 320h-462q-8 0 -15.5 -4t-11.5 -11.5t-4 -15.5q0 -13 9 -22.5t22 -9.5h462q6 0 12 2.5t10 7t6.5 10t2.5 12.5q0 8 -4 15.5t-11.5 11.5t-15.5 4zM445 566h462
q6 0 12 2.5t10 6.5t6.5 10t2.5 13q0 5 -1.5 9.5t-4.5 8.5t-7 7t-8.5 4.5t-9.5 1.5h-462q-8 0 -15.5 -4t-11.5 -11.5t-4 -15.5q0 -13 9 -22.5t22 -9.5zM312 415h-190q-13 0 -22 -9t-9 -22v-190q0 -5 1 -9t3 -7.5t5 -6.5t6.5 -5t7.5 -3t8 -1h190q9 0 16.5 4.5t11.5 11.5t4 16
v190q0 13 -9.5 22t-22.5 9zM281 225h-127v127h127v-127zM312 106h-190q-13 0 -22 -9t-9 -22v-190q0 -13 9 -22.5t22 -9.5h190q7 0 12.5 2.5t10 7t7 10t2.5 12.5v190q0 6 -2.5 12t-7 10t-10 6.5t-12.5 2.5zM281 -84h-127v127h127v-127zM380 741q-10 7 -23 5.5t-20 -10.5
l-148 -184l-49 55q-3 3 -7 5.5t-9 3.5t-9.5 0.5t-9 -2t-8.5 -4.5q-5 -4 -8 -9.5t-3 -11.5q-1 -12 7 -22l74 -82q9 -10 23 -10h1q15 0 24 11l171 213q8 10 6 22.5t-12 19.5z" />
    <glyph glyph-name="uniE614" unicode="&#xe614;" 
d="M513 -157q-91 0 -174 36t-143 96t-95.5 142.5t-35.5 173.5q0 53 11.5 103t34 94t53 83t69.5 69.5t83 53t94.5 34t102.5 11.5q91 0 174 -35.5t143 -95.5t95.5 -143t35.5 -174t-35.5 -173.5t-95.5 -142.5t-143 -96t-174 -36zM513 722q-70 0 -136 -21.5t-119 -61.5
t-92.5 -93t-61.5 -119t-22 -136q0 -116 57.5 -215.5t157 -157t216.5 -57.5q87 0 167 34t137.5 91.5t91.5 137.5t34 167q0 166 -110 288q-108 119 -265 140q-28 3 -55 3zM545 8l-309 310v202h202l310 -310zM253 325l292 -292l178 177l-292 293h-178v-178zM624 14l-12 12
l184 184l-295 295l12 12l307 -307zM363 339q-11 0 -21 4.5t-17.5 11.5t-11.5 17t-4 21q0 22 15.5 38t38 16t38.5 -16t16 -38t-16 -38t-38 -16zM363 430q-10 0 -18.5 -5t-13.5 -13.5t-5 -18.5t5 -18.5t13.5 -13.5t18.5 -5t18.5 5t13.5 13.5t5 18.5t-5 18.5t-13.5 13.5
t-18.5 5z" />
    <glyph glyph-name="uniE615" unicode="&#xe615;" 
d="M784 199v502q0 12 -6 22t-16.5 16t-22.5 6h-619q-18 0 -31 -13t-13 -31v-502q0 -8 2 -14.5t6.5 -12t10 -10t12 -6.5t13.5 -2h117v-231l156 231h346q19 0 32 13t13 32zM681 289h-502q-10 0 -17 7t-7 16.5t7 16.5t17 7h502q10 0 16.5 -7t6.5 -17q0 -6 -3 -11.5t-8.5 -8.5
t-11.5 -3zM681 426h-502q-7 0 -12 3t-8.5 8.5t-3.5 11.5q0 10 7 17t17 7h502q10 0 16.5 -7t6.5 -16.5t-6.5 -16.5t-16.5 -7zM681 563h-502q-7 0 -12 3t-8.5 8.5t-3.5 12t3.5 11.5t8.5 8.5t12 3.5h502q3 0 6 -1t5.5 -2.5t5 -3.5t4 -5t2 -6t0.5 -6q0 -6 -3 -11.5t-8.5 -8.5
t-11.5 -3zM914 378h-83v-210q0 -3 -0.5 -7t-4 -15t-9.5 -19.5t-19.5 -16t-31.5 -8.5h-252v-59q0 -4 2 -9t10 -13t20 -8h181l100 -164v164h89h4q2 0 7.5 1.5t10 5t7.5 11.5t3 19q0 17 0.5 88.5t0.5 135t0 62.5q-1 0 0 4t-1 10.5t-5 12.5t-10.5 10.5t-18.5 4.5z" />
    <glyph glyph-name="uniE616" unicode="&#xe616;" 
d="M777 463l1 -20v-35q0 -55 -17 -104t-48 -87t-73.5 -66t-96.5 -42.5t-114 -14.5h-70q89 -87 210 -87h14q7 0 14 1t13.5 1.5t13.5 1.5l131 -80v132q35 24 61 56.5t40.5 71.5t14.5 80q0 56 -25 105.5t-69 86.5zM374 147q13 -3 38.5 -5t39.5 -2q61 0 114 22t89 59t56 86
t20 104q0 71 -40.5 132.5t-105 96.5t-133.5 35q-125 0 -213.5 -77.5t-88.5 -186.5q0 -129 93 -208v-132zM301 408zM266 407.5q0 14.5 10.5 24.5t24.5 10t24 -10t10 -24.5t-10 -24.5t-24 -10t-24.5 10t-10.5 24.5zM440 408zM405 408q0 14 10 24t25 10q7 0 13 -2.5t11 -7
t7.5 -11t2.5 -13.5q0 -15 -10 -25t-24 -10q-8 0 -14 3t-11 7.5t-7.5 11t-2.5 13.5zM579 408zM545 407.5q0 14.5 10 24.5t24.5 10t24.5 -10t10 -24.5t-10 -24.5t-24.5 -10t-24.5 10t-10 24.5z" />
    <glyph glyph-name="uniE617" unicode="&#xe617;" 
d="M147 -7v590q0 29 20.5 49.5t49.5 20.5h590q19 0 35 -9.5t25.5 -25.5t9.5 -35v-590q0 -29 -20.5 -49.5t-49.5 -20.5h-590q-29 0 -49.5 20.5t-20.5 49.5zM217 599q-4 0 -8 -2t-6 -6t-2 -8v-590q0 -7 4.5 -11.5t11.5 -4.5h590q7 0 11.5 4.5t4.5 11.5v590q0 4 -2 8t-6 6t-8 2
h-590zM498 431q8 7 13.5 4t5.5 -14v-91h143q10 0 17.5 -8t7.5 -19v-30q0 -7 -3.5 -13t-9 -9t-12.5 -3h-143v-93q0 -11 -5.5 -14t-14.5 4l-149 126q-6 5 -8 11t0 12t7 11z" />
    <glyph glyph-name="uniE618" unicode="&#xe618;" 
d="M786 809h-535q-7 0 -14 -2.5t-12.5 -6.5t-10 -9.5t-6.5 -12.5t-2 -15v-55v-22v-715v-51v-83q0 -19 13 -32.5t32 -13.5h78h168h44h167h78q19 0 32.5 13.5t13.5 32.5v107v27v715v45v32q0 13 -6 23.5t-16.5 16.5t-23.5 6zM580 754q2 2 4 3l6 2q2 1 5 1t5 -1l6 -2q2 -1 4 -3
q3 -4 4.5 -7.5t1.5 -8t-1.5 -8t-4.5 -6.5q-6 -7 -15 -7t-15 6q-6 7 -6 16q0 8 6 15zM457 760h59q8 0 14.5 -6.5t6.5 -15t-6.5 -15t-14.5 -6.5h-59q-6 0 -11 3t-8 8t-3 10q0 17 17 21q3 1 5 1zM519 -166q-14 0 -25 6.5t-17.5 18t-6.5 24.5q0 21 14 35.5t34.5 14.5t35 -14.5
t14.5 -35t-14.5 -35t-34.5 -14.5zM787 -29h-536v698h536v-698z" />
    <glyph glyph-name="uniE619" unicode="&#xe619;" horiz-adv-x="1104" 
d="M552 809q-97 0 -184.5 -36.5t-150.5 -97.5t-99.5 -146t-35.5 -178q0 -92 35 -174t99 -146v-105v-100v-38l211 118q31 -7 62 -11.5t63 -4.5q97 0 184.5 36t151 97t101 146t37.5 179t-37.5 179.5t-101 147t-151 98t-184.5 36.5zM299 274q-35 0 -59 24.5t-24 59.5
q0 22 11.5 41t30.5 30.5t41 11.5q36 0 60 -24.5t24 -58.5q0 -36 -24.5 -60t-59.5 -24zM552 274q-35 0 -59 24.5t-24 59.5q0 22 11.5 41t30.5 30.5t41 11.5q36 0 59.5 -24.5t23.5 -58.5q0 -36 -23.5 -60t-59.5 -24zM805 274q-18 0 -33.5 7t-26.5 18t-17 26.5t-6 32.5
q0 33 24.5 58t58.5 25q18 0 33.5 -7t26.5 -18t17 -26.5t6 -31.5q0 -36 -23.5 -60t-59.5 -24z" />
    <glyph glyph-name="uniE61A" unicode="&#xe61a;" 
d="M719 -145h-416q-46 0 -78.5 32.5t-32.5 79.5v671q0 46 32.5 79t78.5 33h416q46 0 78.5 -33t32.5 -79v-671q0 -47 -32.5 -79.5t-78.5 -32.5zM775 638q0 23 -16.5 39.5t-39.5 16.5h-416q-23 0 -39 -16.5t-16 -39.5v-28h527v28zM775 554h-527v-447h527v447zM775 51h-527v-84
q0 -24 16 -40t39 -16h416q23 0 39.5 16t16.5 40v84zM511 -61q-11 0 -20.5 5.5t-15.5 15t-6 21t6 21t15.5 15.5t20.5 6q17 0 29.5 -12.5t12.5 -29.5q0 -29 -26 -39q-8 -3 -16 -3z" />
    <glyph glyph-name="uniE61B" unicode="&#xe61b;" 
d="M299 357zM665 441zM264 387zM512 -184q-180 0 -317 119q-130 113 -159 282q-7 42 -8 83q0 98 38.5 187.5t103.5 154.5t154.5 103.5t187.5 38.5t187.5 -38.5t154.5 -103.5t103.5 -154.5t38.5 -187.5q0 -180 -119 -317q-113 -130 -282 -159q-42 -7 -83 -8zM512 727
q-44 0 -86 -9t-80 -25t-72.5 -39.5t-63 -52t-52 -63t-39.5 -72.5t-25 -80t-9 -86q0 -87 34 -166t91 -136t136 -91t166 -34q116 0 214 57.5t155.5 155.5t57.5 214t-57.5 214t-155.5 155.5t-214 57.5zM753 330h-378l117 117q5 5 7 12.5t0 15t-7 12.5q-4 4 -9.5 6t-11 2
t-10.5 -2t-9 -6l-161 -161q-1 0 -1.5 -1t-0.5 -1.5t-1 -1.5h-1q-8 -8 -8 -20t8 -20l161 -161q8 -9 20 -9t20 9q4 4 6 9t2 10.5t-2 11t-6 9.5l-112 112h377q11 0 19.5 8.5t8.5 19.5q0 8 -4 14.5t-10.5 10.5t-13.5 4z" />
    <glyph glyph-name="uniE61C" unicode="&#xe61c;" 
d="M785 -99q0 -13 -7 -24.5t-18 -18t-24 -6.5h-448q-13 0 -24 6.5t-18 18t-7 24.5v798q0 20 14.5 34.5t34.5 14.5h448q20 0 34.5 -14.5t14.5 -34.5v-798zM714 599q0 20 -11.5 34t-29.5 14h-318q-11 0 -20.5 -4t-16.5 -10.5t-11 -15.5t-4 -18v-497q0 -19 14.5 -33.5
t33.5 -14.5h314q20 0 34.5 14.5t14.5 33.5v497zM546 -47q0 14 -10 23.5t-24 9.5t-24 -9.5t-10 -23.5t10 -24t24 -10t24 10t10 24z" />
    <glyph glyph-name="uniE61D" unicode="&#xe61d;" 
d="M757 774h-454h-3t-9.5 -1.5t-13 -3.5t-14 -7t-12.5 -12t-9 -18t-4 -25v-814q1 -1 0 -7t2 -16.5t8.5 -20t19 -16.5t32.5 -7h460h2q2 0 6.5 0.5t8.5 1.5t9.5 3t10.5 5t10 8t8.5 11.5t6 15.5t2.5 19v817v7q-1 7 -4 16.5t-9.5 19.5t-20.5 17t-33 7zM465 741h130v-32h-130v32z
M416 741q3 0 6 -1t5.5 -3t3.5 -5.5t1 -6.5q0 -7 -4.5 -11.5t-11.5 -4.5q-3 0 -6 1t-5.5 3.5t-3.5 5.5t-1 6q0 7 4.5 11.5t11.5 4.5zM530 -109q-13 0 -22.5 9.5t-9.5 23t9.5 23.5t22.5 10q9 0 16.5 -4.5t12 -12t4.5 -16.5q0 -23 -22 -31q-6 -2 -11 -2zM760 22h-459v654h459
v-654zM760 22z" />
    <glyph glyph-name="uniE61E" unicode="&#xe61e;" 
d="M933 196q0 81 -69 139.5t-166 58.5t-166 -58t-69 -140t68.5 -140t166.5 -58q32 0 56 4l96 -52l-26 80q45 30 77 75.5t32 90.5zM614 233q-4 0 -8.5 1.5t-7.5 3.5t-6 5t-5 6.5t-3 7t-1 8.5q0 13 9 22t22 9q5 0 10 -1.5t8.5 -4.5t6.5 -6.5t4.5 -8.5t1.5 -10q0 -13 -9 -22.5
t-22 -9.5zM772 233q-12 0 -21 9.5t-9 22.5t9 22t21 9q14 0 23 -9t9 -22t-9 -22.5t-23 -9.5zM684 402q-1 103 -87.5 175.5t-208.5 72.5q-81 0 -149.5 -33t-108 -90.5t-39.5 -125.5q0 -57 40.5 -114.5t97.5 -94.5l-33 -102l121 67q10 -1 22 -2.5t25.5 -2.5t23.5 -1q32 0 69 8
q-5 18 -5 38q0 54 31 100.5t84 74.5t117 30zM494 528q8 0 15 -3t12 -8.5t8.5 -13t3.5 -15.5q0 -10 -5.5 -19t-14.5 -14.5t-19 -5.5q-17 0 -28.5 11.5t-11.5 27.5q0 17 11.5 28.5t28.5 11.5zM293 449q-11 0 -20 5.5t-14 14t-5 19.5q0 17 11 28.5t28 11.5q11 0 20 -5t14 -14.5
t5 -20.5q0 -16 -11.5 -27.5t-27.5 -11.5z" />
    <glyph glyph-name="uniE61F" unicode="&#xe61f;" 
d="M882 334h-364v121q3 18 -9 30q-9 9 -21.5 10t-21.5 -7h-1q-1 -1 -2 -1.5t-2 -1.5l-15 -15l-157 -146v-1q-4 -4 -6.5 -10t-2.5 -13q0 -12 7 -21v-1l176 -165v1q4 -4 9 -6t10 -2.5t9.5 0.5t9.5 3.5t8 5.5q12 12 9 30v121h364q4 0 7.5 0.5t6.5 2t5.5 3t4.5 4t4 5.5t3 6
t1.5 6t0.5 7q0 15 -9 24.5t-24 9.5zM757 164q-14 0 -24 -10t-10 -24v-1v-91q0 -9 -3.5 -17.5t-9.5 -14.5t-14.5 -9.5t-18.5 -3.5h-455q-18 0 -31.5 13t-13.5 32v524q0 19 13.5 32t31.5 13h455q5 0 9 -0.5t7.5 -2t7 -3.5t6.5 -4.5t5.5 -5.5t4.5 -6.5t3.5 -7t2 -7.5t0.5 -8
v-91v-2v-2q0 -14 10 -24t24 -10t24 10t10 24v4v113q0 38 -26.5 64.5t-64.5 26.5h-500q-38 0 -64.5 -26.5t-26.5 -64.5v-568q0 -38 26.5 -64.5t64.5 -26.5h500q38 0 64.5 26.5t26.5 64.5v113v1q0 14 -10 24t-24 10z" />
    <glyph glyph-name="uniE620" unicode="&#xe620;" 
d="M882 334h-364v121q3 18 -9 30q-9 9 -21.5 10t-21.5 -7h-1q-1 -1 -2 -1.5t-2 -1.5l-15 -15l-157 -146v-1q-4 -4 -6.5 -10t-2.5 -13q0 -12 7 -21v-1l176 -165v1q4 -4 9 -6t10 -2.5t9.5 0.5t9.5 3.5t8 5.5q12 12 9 30v121h364q4 0 7.5 0.5t6.5 2t5.5 3t4.5 4t4 5.5t3 6
t1.5 6t0.5 7q0 15 -9 24.5t-24 9.5zM757 164q-14 0 -24 -10t-10 -24v-1v-91q0 -9 -3.5 -17.5t-9.5 -14.5t-14.5 -9.5t-18.5 -3.5h-455q-18 0 -31.5 13t-13.5 32v524q0 19 13.5 32t31.5 13h455q5 0 9 -0.5t7.5 -2t7 -3.5t6.5 -4.5t5.5 -5.5t4.5 -6.5t3.5 -7t2 -7.5t0.5 -8
v-91v-2v-2q0 -14 10 -24t24 -10t24 10t10 24v4v113q0 38 -26.5 64.5t-64.5 26.5h-500q-38 0 -64.5 -26.5t-26.5 -64.5v-568q0 -38 26.5 -64.5t64.5 -26.5h500q38 0 64.5 26.5t26.5 64.5v113v1q0 14 -10 24t-24 10z" />
    <glyph glyph-name="uniE621" unicode="&#xe621;" 
d="M882 334h-364v121q3 18 -9 30q-9 9 -21.5 10t-21.5 -7h-1q-1 -1 -2 -1.5t-2 -1.5l-15 -15l-157 -146v-1q-4 -4 -6.5 -10t-2.5 -13q0 -12 7 -21v-1l176 -165v1q4 -4 9 -6t10 -2.5t9.5 0.5t9.5 3.5t8 5.5q12 12 9 30v121h364q4 0 7.5 0.5t6.5 2t5.5 3t4.5 4t4 5.5t3 6
t1.5 6t0.5 7q0 15 -9 24.5t-24 9.5zM757 164q-14 0 -24 -10t-10 -24v-1v-91q0 -9 -3.5 -17.5t-9.5 -14.5t-14.5 -9.5t-18.5 -3.5h-455q-18 0 -31.5 13t-13.5 32v524q0 19 13.5 32t31.5 13h455q5 0 9 -0.5t7.5 -2t7 -3.5t6.5 -4.5t5.5 -5.5t4.5 -6.5t3.5 -7t2 -7.5t0.5 -8
v-91v-2v-2q0 -14 10 -24t24 -10t24 10t10 24v4v113q0 38 -26.5 64.5t-64.5 26.5h-500q-38 0 -64.5 -26.5t-26.5 -64.5v-568q0 -38 26.5 -64.5t64.5 -26.5h500q38 0 64.5 26.5t26.5 64.5v113v1q0 14 -10 24t-24 10z" />
    <glyph glyph-name="uniE622" unicode="&#xe622;" 
d="M726 727h-428q-23 0 -38.5 -15.5t-15.5 -38.5v-754q0 -9 2.5 -17.5t7.5 -15t11.5 -11.5t15 -7.5t17.5 -2.5h428q23 0 38.5 15.5t15.5 38.5v754q0 23 -15.5 38.5t-38.5 15.5zM391 673h242q3 0 6 -1.5t5 -5t2 -6.5q0 -6 -4 -10t-9 -4h-242q-5 0 -9 4t-4 9.5t4 9.5t9 4z
M512 -108q-5 0 -10 2t-9 5.5t-6 8.5t-2 11q0 7 3.5 13.5t10 10t13.5 3.5q11 0 19 -8t8 -19t-8 -19t-19 -8zM726 -27h-428v619h428v-619z" />
    <glyph glyph-name="uniE623" unicode="&#xe623;" 
d="M683 752h-341q-21 0 -39 -10t-28 -28t-10 -39v-775q0 -32 22.5 -54.5t54.5 -22.5h341q21 0 38.5 10.5t28 28t10.5 38.5v775q0 12 -4 24t-11 21.5t-16.5 16.5t-21.5 11t-24 4zM466 690h93q3 0 6 -1t5 -3t3 -5t1 -6q0 -2 -0.5 -4t-1.5 -4t-2 -3l-4 -2q-1 -1 -3 -2t-4 -1
h-93q-7 0 -11.5 4.5t-4.5 11.5q0 3 1.5 6t3.5 5t5 3t6 1zM512 -146q-19 0 -32.5 13.5t-13.5 33t13.5 33t33 13.5t33 -13.5t13.5 -33.5q0 -12 -6.5 -23t-17 -17t-23.5 -6zM729 -22h-433v619h433v-619z" />
    <glyph glyph-name="uniE624" unicode="&#xe624;" 
d="M751 650h-478v-618h478v618zM562 700q0 2 -1 4l-2 2q-1 2 -3 3t-4 1h-100q-10 0 -10 -10v-10q0 -10 10 -10h100q3 0 5 1.5t3.5 3.5t1.5 5v10zM512 -87q16 0 28 11.5t12 28.5q0 8 -3 15.5t-8.5 12.5t-13 8.5t-15.5 3.5q-16 0 -28 -12t-12 -28.5t12 -28t28 -11.5zM751 -147
h-478q-16 0 -30 8t-22 22t-8 30v777q0 24 17.5 42t42.5 18h478q25 0 42.5 -18t17.5 -42v-777q0 -25 -17.5 -42.5t-42.5 -17.5z" />
    <glyph glyph-name="uniE625" unicode="&#xe625;" 
d="M165 498h339v-83h-339v83zM677 498h182v-83h-182v83zM599 457zM557 457q0 17 12 29t30 12q8 0 16 -3t13.5 -8.5t8.5 -13.5t3 -16q0 -28 -26 -39q-8 -3 -15 -3t-13.5 2t-11.5 6t-9 9t-6 11.5t-2 13.5zM165 280h339v-84h-339v84zM677 280h182v-84h-182v84zM599 238z
M557 238q0 17 12 29.5t29.5 12.5t29.5 -12.5t12 -29.5q0 -28 -26 -39q-8 -2 -15 -3q-18 0 -30 12.5t-12 29.5zM165 61h339v-83h-339v83zM677 61h182v-83h-182v83zM599 19zM557 19.5q0 17.5 12 29.5t29.5 12t29.5 -12t12 -30q0 -28 -26 -38q-8 -3 -15 -3q-18 0 -30 12
t-12 29.5zM0 610h87v-735h-87v735zM937 610h87v-735h-87v735zM0 -125h1024v-87h-1024v87zM0 812v-202h1024v202h-1024zM786 680q-13 0 -22 9t-9 22t9 22t22 9t22 -9t9 -22t-9 -22t-22 -9zM907 680q-8 0 -15.5 4t-11.5 11t-4 15.5t4 16t11.5 11.5t15.5 4q7 0 12.5 -2.5
t9.5 -6.5t6.5 -10t2.5 -12q0 -13 -9 -22t-22 -9z" />
    <glyph glyph-name="uniE626" unicode="&#xe626;" 
d="M512 812q-212 0 -362 -150t-150 -362t150 -362t362 -150t362 150t150 362t-150 362t-362 150zM710 -84q-26 -26 -60 -26q-11 0 -21.5 3t-20 9t-17.5 14l-355 353q-15 15 -27 33.5t-19 37.5t-7 33v45h34v-45q0 -13 12 -37.5t30 -42.5l355 -353q5 -5 11 -8.5t12.5 -5
t13 -1.5t12.5 1.5t12 5t11 8.5l200 200q15 15 15 35.5t-15 35.5l-354 354q-17 17 -48 29.5t-56 12.5h-160q-26 -1 -41 -15q-2 -2 -3 -3.5t-2.5 -3.5t-2.5 -4.5t-1.5 -5t-0.5 -5.5v-55h-34v55q0 28 20 46q8 7 18 13t22 9t25 3h160q32 0 68.5 -15t59.5 -38l354 -353
q9 -9 15 -21.5t8 -25.5t0 -25.5t-8 -25t-15 -21.5zM326 496q27 28 65 28q12 0 23.5 -3.5t22 -9.5t19.5 -15q27 -27 27 -65t-27 -64q-13 -13 -30 -20.5t-35 -7.5q-38 0 -65 28q-27 26 -27 64t27 65zM430 472q-8 8 -19 12.5t-22 4.5q-7 0 -14.5 -2t-14 -5.5t-12.5 -9.5
q-5 -5 -9 -12t-5.5 -14t-1.5 -14.5t1.5 -15t5.5 -14t9 -12.5q17 -16 41 -16t41 16q18 17 18 41.5t-18 40.5z" />
    <glyph glyph-name="uniE627" unicode="&#xe627;" 
d="M711 748h-397q-27 0 -50 -13.5t-36.5 -36.5t-13.5 -50v-695q0 -41 29.5 -70t70.5 -29h397q41 0 70 29t29 70v695q0 41 -29 70.5t-70 29.5zM413 698h198v-50h-198v50zM512 -96q-20 0 -34.5 14.5t-14.5 35t14.5 35t35 14.5t35 -14.5t14.5 -35.5q0 -13 -6.5 -24.5t-18 -18
t-25.5 -6.5zM760 53h-496v546h496v-546z" />
    <glyph glyph-name="uniE628" unicode="&#xe628;" 
d="M887 -155h-752q-18 0 -30.5 12.5t-12.5 30.5v733q0 18 12.5 30.5t30.5 12.5h72v-43q0 -35 25.5 -59.5t61.5 -24.5q24 0 44 11t31.5 30.5t11.5 42.5v43h43v-43q0 -11 3 -22t9 -20.5t14 -17t17.5 -13t20.5 -8.5t23 -3q18 0 34 6.5t27.5 18t18.5 27t7 32.5v43h43v-43
q0 -35 25.5 -59.5t61.5 -24.5t61.5 24.5t25.5 59.5v43h72q18 0 30.5 -12.5t12.5 -30.5v-733q0 -9 -3.5 -16.5t-9 -13.5t-13.5 -9.5t-17 -3.5zM771 424h-520q-12 0 -22 -5.5t-16 -15.5t-6 -21q0 -18 13 -30.5t31 -12.5h520q18 0 31 12.5t13 30t-13 30t-31 12.5zM771 241h-520
q-18 0 -31 -12.5t-13 -30.5q0 -11 6 -21t16 -15.5t22 -5.5h520q18 0 31 12.5t13 30t-13 30t-31 12.5zM778 57h-534q-15 0 -26 -10.5t-11 -25t11 -24.5t26 -10h534q15 0 26 10t11 24.5t-11 25t-26 10.5zM728 579q-18 0 -31 12.5t-13 29.5v85q0 9 3.5 16.5t9.5 13.5t14 9t17 3
q7 0 13.5 -2t12 -6t9.5 -9t6 -11.5t2 -13.5v-85q0 -17 -12.5 -29.5t-30.5 -12.5zM511 579q-18 0 -30.5 12.5t-12.5 29.5v85q0 7 2 13.5t6 11.5t9.5 9t12 6t13.5 2q18 0 30.5 -12t12.5 -30v-85q0 -17 -12.5 -29.5t-30.5 -12.5zM294 579q-12 0 -22 5.5t-15.5 15.5t-5.5 21v85
q0 18 12.5 30t30.5 12t31 -12t13 -30v-85q0 -17 -13 -29.5t-31 -12.5z" />
    <glyph glyph-name="uniE629" unicode="&#xe629;" 
d="M472 667q-55 0 -107 -15t-93.5 -42.5t-73 -63.5t-48.5 -81t-17 -93q0 -73 39 -137.5t108 -105.5v-95q0 -10 8 -14l8 -2q4 0 8 3l44 28l2 2l49 33q37 -7 73 -7q92 0 170 39.5t123.5 107.5t45.5 148q0 40 -12 78t-34 70.5t-53.5 60t-68.5 46.5t-81 29.5t-90 10.5zM826 296
q34 -46 34 -100q0 -31 -12 -60.5t-34.5 -54.5t-53.5 -42q-8 -5 -8 -14v-47l-5 4q-1 0 -1 0.5t-1 0.5l-42 28q-1 1 -2.5 1.5t-2.5 0.5h-4h-3q-56 -11 -106.5 0t-91.5 41l-19 -25q45 -33 101.5 -46t115.5 -2l35 -23q1 -1 2 -1l31 -21q4 -3 9 -3q4 0 7 2q9 4 9 14v67
q50 31 78.5 78.5t28.5 101.5q0 65 -40 119z" />
    <glyph glyph-name="uniE62A" unicode="&#xe62a;" 
d="M370 461q-8 0 -15 -3t-13 -9q-11 -11 -11 -27.5t11 -27.5q8 -7 18 -10t20 0t18 10q11 11 11 27.5t-11 27.5q-12 12 -28 12zM867 263l-354 354q-27 26 -64 26q-11 0 -21 -2l-170 -39q-17 -4 -31 -13.5t-23.5 -24t-13.5 -30.5l-40 -171q-11 -49 25 -84l354 -355
q26 -26 64 -26t64 26l210 210q13 13 20 29.5t7 35.5q0 37 -27 64zM421 371q-10 -11 -23.5 -16.5t-27.5 -5.5q-30 0 -51 22q-14 13 -19 32t0 37.5t19 32.5q10 10 23.5 15.5t27.5 5.5q5 0 9.5 -0.5t8.5 -1.5l10 -4q4 -1 8 -3.5t8 -5.5t7 -6q10 -11 15.5 -24t5.5 -27
q0 -30 -21 -51z" />
    <glyph glyph-name="uniE62B" unicode="&#xe62b;" 
d="M887 -71h-752q-7 0 -13.5 2.5t-12 6.5t-9.5 9t-6 11.5t-2 13.5v733q0 18 12.5 30.5t30.5 12.5h72v-43q0 -35 25.5 -59.5t61.5 -24.5q24 0 44 11t31.5 30.5t11.5 42.5v43h43v-43q0 -11 3 -22t9 -20.5t14 -17t17.5 -13t20.5 -8.5t23 -3q18 0 34 6.5t27.5 18t18.5 27t7 32.5
v43h43v-43q0 -35 25.5 -59.5t61.5 -24.5q17 0 33.5 6.5t28 18t18.5 27t7 32.5v43h72q18 0 30.5 -12.5t12.5 -30.5v-733q0 -6 -1.5 -11.5t-4.5 -10t-7 -8.5t-8.5 -6.5t-10 -4.5t-11.5 -2zM771 508h-520q-12 0 -22 -5.5t-16 -15.5t-6 -21q0 -18 13 -30.5t31 -12.5h520
q18 0 31 12.5t13 30t-13 30t-31 12.5zM771 325h-520q-12 0 -22 -6t-16 -15.5t-6 -21t6 -21.5t16 -15.5t22 -5.5h520q18 0 31 12.5t13 29.5q0 9 -3.5 16.5t-9.5 13.5t-14 9.5t-17 3.5zM778 141h-534q-15 0 -26 -10.5t-11 -24.5q0 -7 3 -13.5t8 -11.5t11.5 -7.5t14.5 -2.5h534
q15 0 26 10t11 24.5t-11 25t-26 10.5zM728 663q-18 0 -31 12.5t-13 29.5v85q0 9 3.5 16.5t9.5 13.5t14 9t17 3q7 0 13.5 -2t12 -6t9.5 -9t6 -11.5t2 -13.5v-85q0 -17 -12.5 -29.5t-30.5 -12.5zM511 663q-18 0 -30.5 12.5t-12.5 29.5v85q0 7 2 13.5t6 11.5t9.5 9t12 6t13.5 2
q18 0 30.5 -12t12.5 -30v-85q0 -11 -5.5 -21t-15.5 -15.5t-22 -5.5zM294 663q-12 0 -22 5.5t-15.5 15.5t-5.5 21v85q0 18 12.5 30t30.5 12t31 -12t13 -30v-85q0 -17 -13 -29.5t-31 -12.5z" />
    <glyph glyph-name="uniE62C" unicode="&#xe62c;" 
d="M315 549zM862 -71v153h120v251h-306v-371h137v-41h-39h-3h-135v452h386v-309v-1v-2v-7v-1l-1 -1l-1 -10h-2q-8 -21 -20.5 -40t-29 -34.5t-36.5 -27t-41 -18.5h-1h-6h-6h-5h-2l-9 -3v10zM902 -31q49 24 73 73h-73v-73zM716 155v40h226v-40h-226zM716 228v40h226v-40h-226z
M873 849h-204q-24 0 -41 -17t-17 -41v-116h-146v-44v-218h-116v175q0 24 -17 41t-41 17h-233q-24 0 -41 -17t-17 -41v-408q0 -16 8 -29t21.5 -21t28.5 -8h233q15 0 28.5 8t21.5 21t8 29v175h116v-175v-29v-58h58v87v436h88v-116q0 -16 7.5 -29t21 -21t29.5 -8h204
q11 0 22 4.5t18.5 12.5t12 18.5t4.5 22.5v291q0 24 -16.5 41t-40.5 17zM291 180h-233v408v-1h233v1v-408zM669 500v291h203v-291h1h-204z" />
    <glyph glyph-name="uniE62D" unicode="&#xe62d;" 
d="M315 549zM1016 253l-110 110q-7 7 -17 7q-2 0 -4.5 -0.5t-4.5 -1.5l-4 -2q-2 -1 -4 -3l-273 -273q-7 -7 -7 -17v-109q0 -9 7 -16t17 -7h109q10 0 17 7l164 163q3 4 5 8t2 9q0 3 -1 6t-2.5 6t-3.5 5q-7 7 -17 7t-17 -7l-156 -157h-76l-1 74l250 251l77 -76l-21 -22l-39 38
q-7 7 -16.5 7t-16.5 -7t-7 -16q0 -5 1.5 -9.5t5.5 -7.5l54 -55q7 -7 17 -7t17 7l55 55q3 3 4.5 7.5t1.5 9.5q1 9 -6 16zM642 437h196q15 0 27.5 7.5t20 20t7.5 28.5v278q0 10 -2.5 18.5t-7.5 15t-12 12t-15.5 8t-17.5 2.5h-196q-23 0 -39.5 -16t-16.5 -40v-111h-139v-42
v-209h-112v167q0 23 -16.5 39.5t-39.5 16.5h-223q-11 0 -21.5 -4.5t-18 -12t-12 -17.5t-4.5 -22v-391q0 -23 16.5 -39.5t39.5 -16.5h223q8 0 15 2t13 6t11.5 9t9 11t5.5 13.5t2 14.5v168h112v-196v-55l56 83v419h83v-111q0 -16 7.5 -28.5t20.5 -20t28 -7.5zM838 772v-1v-278
v-1h-196v1v278v1h196zM279 185h-223v391h223v-391z" />
    <glyph glyph-name="uniE62E" unicode="&#xe62e;" 
d="M820 95v-159l-157 97q-35 -6 -67 -6q-79 0 -149.5 28.5t-121.5 78.5q1 0 3 -1q20 -1 30 -1q6 0 12.5 -0.5t10 -1t12.5 0.5q89 -61 203 -61q38 0 77 8l58 -38l-4 4l-4 4l51 -37v45v59q68 39 108 100.5t40 134.5q0 91 -64 165q-1 2 -2 4.5t-2 4t-1.5 3.5t-0.5 3l-2 3
q-1 2 -1 3t-0.5 3t-0.5 4v4v5q0 3 -2 24q54 -44 84 -104t30 -127q0 -74 -37.5 -139.5t-102.5 -110.5zM428 195q-33 0 -67 6l-157 -97v159q-65 45 -102.5 110t-37.5 140q0 52 18.5 100.5t52 88t78.5 68.5t100.5 45.5t114.5 16.5q74 0 141.5 -25.5t116 -68t77.5 -101.5
t29 -124q0 -86 -49 -159.5t-132.5 -116t-182.5 -42.5zM610 468q-12 0 -21.5 5.5t-15 15t-5.5 21.5q0 17 12 29.5t30 12.5q5 0 9.5 -1t8.5 -3l8 -6q4 -2 6 -6l6 -8q2 -4 3 -8.5t1 -9.5q0 -9 -3.5 -16.5t-9 -13t-13.5 -9t-16 -3.5zM442 468q-17 0 -29.5 12t-12.5 29.5t12.5 30
t29.5 12.5t29.5 -12.5t12.5 -30t-12.5 -29.5t-29.5 -12zM274 468q-17 0 -29.5 12t-12.5 29.5t12.5 30t30 12.5t29.5 -12.5t12 -29.5q0 -12 -5.5 -21.5t-15 -15t-21.5 -5.5zM274 468z" />
    <glyph glyph-name="uniE62F" unicode="&#xe62f;" 
d="M213 370v0h2h-2zM813 128h96q16 0 27.5 -11t11.5 -28v-96q0 -5 -1 -10t-3.5 -9.5t-6 -8t-8 -6t-9.5 -4t-11 -1.5h-96q-16 0 -27.5 11t-11.5 28v39h-18q-40 0 -68.5 28t-28.5 68v154h-96v-193q0 -6 -2 -12t-5.5 -10.5t-8 -8.5t-10.5 -6t-13 -2h-403q-16 0 -27.5 11.5
t-11.5 27.5v406q0 10 5 19t14 14.5t20 5.5h192v172h-192q-17 0 -28 11t-11 27v39q0 16 11 27.5t28 11.5h788q5 0 10 -1t9.5 -3.5t8 -6t6 -8t4 -9.5t1.5 -11v-39q0 -7 -3 -14t-8 -12.5t-12 -8.5t-16 -3h-577v-175h192q16 0 27.5 -11t11.5 -27v-191h96v154q0 26 13 48t35.5 35
t48.5 13h18v39q0 16 11.5 27.5t27.5 11.5h96q11 0 19.5 -5t14 -14t5.5 -20v-96q0 -8 -3 -15t-8 -12.5t-12 -8.5t-16 -3h-96q-16 0 -27.5 11t-11.5 28v39h-18q-21 0 -39 -10.5t-28.5 -28.5t-10.5 -39v-154h96v39q0 16 11.5 27.5t27.5 11.5h96q11 0 19.5 -5t14 -14t5.5 -20
v-96q0 -8 -3 -15t-8 -12.5t-12 -8.5t-16 -3h-96q-8 0 -15 3t-12 8t-8.5 12.5t-3.5 15.5v37h-96v-154q0 -32 22.5 -55t55.5 -23h18v39q0 17 11.5 28t27.5 11z" />
    <glyph glyph-name="uniE630" unicode="&#xe630;" 
d="M702 833h-377q-26 0 -46.5 -15t-20.5 -38v-783q0 -24 21 -43t46 -19h377q24 0 44 19t20 43v783q0 23 -19.5 38t-44.5 15zM497 774h90v-30h-90v30zM437 774h30v-30h-30v30zM512 -35q-7 0 -14 2t-12.5 6.5t-9.5 10t-6.5 12t-2.5 14.5q0 18 13 31.5t32 13.5t32 -13.5
t13 -31.5q0 -6 -1 -11t-3.5 -9.5t-5.5 -8t-7 -7t-8.5 -5.5t-9.5 -3t-10 -1zM706 85h-389v600h389v-600z" />
    <glyph glyph-name="uniE631" unicode="&#xe631;" horiz-adv-x="1000" 
d="M734 156v-1q-1 -1 -3 -3.5t-4 -4.5l-5 -5l-6 -8q-3 -3 -7 -7.5t-8 -7.5l220 -216l36 34zM812 389q0 -78 -29 -148t-78.5 -119.5t-117.5 -78t-143 -28.5q-105 2 -189.5 52.5t-131.5 135.5t-47 186q0 97 49.5 180.5t134.5 132.5t184 49t184.5 -49.5t134.5 -133t49 -179.5z
M442 702q-86 0 -159 -42.5t-115.5 -116t-42.5 -160.5q0 -133 93 -226.5t224 -93.5q86 0 160 43t117.5 116.5t43.5 160.5q0 65 -25.5 124.5t-69 102t-102.5 67.5t-124 25z" />
    <glyph glyph-name="uniE632" unicode="&#xe632;" horiz-adv-x="1000" 
d="M438 800v-250h-102l164 -189l166 189h-104v250h-124zM62 729q-13 0 -23.5 -5t-19.5 -16q-19 -21 -19 -51v-643q0 -29 18.5 -50t43.5 -21h875q26 0 44.5 21t18.5 50v643q0 30 -18.5 51t-44.5 21h-312v-108h281q13 0 22 -10t9 -25v-500q0 -15 -9 -25.5t-22 -10.5h-812
q-13 0 -22.5 10.5t-9.5 25.5v500q0 15 9.5 25t22.5 10h281v108h-313zM344 -200h312l-31 71q-3 9 -14 22.5t-22 13.5h-179q-5 0 -10.5 -3t-10.5 -10q-10 -13 -14 -23zM344 -200z" />
    <glyph glyph-name="uniE633" unicode="&#xe633;" 
d="M597 95h-308q-21 0 -35.5 15t-14.5 36t14.5 36.5t35.5 15.5h308q21 0 36 -15.5t15 -36.5q0 -5 -1 -10t-3 -9.5t-5 -9.5l112 117v271h-119q-23 0 -39.5 10t-26.5 25.5t-15 33.5t-5 33v103h-240h-74h-65q-13 0 -22 -9t-9 -22v-75v-82v-469v-7v-76q1 -13 9 -21q10 -9 22 -9
h75h68h158l159 165q-12 -10 -30 -10zM597 402q21 0 36 -15t15 -36.5t-15 -36t-36 -14.5h-308q-21 0 -35.5 14.5t-14.5 36t14.5 36.5t35.5 15h308zM686 80q-15 -14 -30 -29.5t-27 -27.5l-20 -20l-11 -11q-8 -8 -13 -19q-2 -3 -4 -12l-7 -19q-3 -11 -5.5 -20.5t-3.5 -14.5
q-1 -10 2 -14t13 -3q5 1 15 3.5t21 6.5l20 6q11 4 15.5 6.5t9.5 6t9 7.5q1 0 9 8.5t19 19.5l27 27l30 30l79 79l-69 69q-44 -43 -79 -79zM889 155q0 3 -0.5 6t-1 5.5t-1.5 4.5q-5 12 -15 22q-4 5 -8.5 8.5t-8.5 5.5q-8 5 -19 6t-21 -8q-2 -1 -3.5 -2.5t-3.5 -3t-4 -3.5
l-5 -6l-6 -4l70 -69l6 5q2 3 5 6l3 3q1 1 2 2.5t3 2.5q9 9 8 19zM751 557v13v109q0 13 -9 22t-21 9h-122h-2v-101v10q0 -12 5 -23.5t13.5 -20.5t20 -13.5t23.5 -4.5h-1h93z" />
    <glyph glyph-name="uniE634" unicode="&#xe634;" 
d="M870 700q0 13 -9 22q-3 3 -6.5 5t-7.5 3t-8 1h-131h-10h-305h-25h-81q-6 0 -12 -2t-10 -6.5t-6.5 -10.5t-2.5 -12v-71h137h263q47 -9 76 -39.5t35 -86.5v-346v-144h4h68q13 0 22 9t9 22v48v65v370v6v-1v168zM717 516q0 8 -2 15.5t-6.5 14.5t-10 13t-13 10t-15 6t-15.5 2
h-90h-312h-121q-4 0 -8 -1t-7.5 -3t-6.5 -5q-1 -2 -2.5 -4t-2.5 -4l-2 -4q-1 -2 -1.5 -4.5t-0.5 -4.5v-76v-34v-388v-34v-75q0 -2 1 -4v-4q1 -2 1.5 -3.5t1.5 -3.5t2.5 -3.5t2.5 -3.5q3 -2 5.5 -3.5t5 -2.5t5.5 -2t6 -1h75h46h312h46h75q13 1 22 9q9 9 9 22v70v1v1v463v0v41
zM599 80q-15 -15 -36 -15h-308q-21 0 -36 15t-15 36t15 36t36 15h308q21 0 36 -15t15 -36t-15 -36zM599 284.5q-15 -14.5 -36 -14.5h-308q-21 0 -36 14.5t-15 36t15 36.5t36 15h308q21 0 36 -15t15 -36.5t-15 -36z" />
    <glyph glyph-name="uniE635" unicode="&#xe635;" 
d="M894 -7l-239 242q73 77 73 205t-86.5 217t-212.5 89t-215 -90t-89 -216q0 -127 88 -213.5t214 -86.5q115 0 188 57l241 -244q7 -6 16 -6t20 11q7 7 8 17.5t-6 17.5zM173 443q0 106 74 180.5t178.5 74.5t178.5 -74.5t74 -180t-74 -180t-178 -74.5q-111 0 -186 81
q-67 74 -67 173z" />
    <glyph glyph-name="uniE636" unicode="&#xe636;" 
d="M945 621q-10 -1 -17 -1q-416 -1 -831 0q-7 0 -17 1q-16 -6 -16 -23v-2q4 -3 12 -8t14 -9t11 -9q118 -107 338 -308q40 -37 73 -37t74 37q247 227 335 306q1 1 39 28v2q0 17 -15 23zM696 259q-22 20 -42 -1q-8 -8 -47 -43q-46 -40 -95 -40t-95 41q-8 6 -64 57
q-169 -139 -188 -154q-6 -6 -101 -81v-35q0 -10 7 -17t17 -7h848q10 0 17 7t7 17v42q-149 118 -165 131q-59 48 -99 83zM64 536v-438q106 88 252 210q-132 120 -252 228zM960 105v431q-102 -93 -249 -226q174 -144 249 -205z" />
    <glyph glyph-name="uniE637" unicode="&#xe637;" 
d="M512 -83q-74 0 -143.5 23t-125.5 65t-98 98t-65 125.5t-23 143.5q0 93 36 177t97 145t145 97t177 36q74 0 143.5 -23t125.5 -65t98 -98t65 -125.5t23 -143.5q0 -93 -36 -177t-97 -145t-145 -97t-177 -36zM512 788q-113 0 -209 -56t-151.5 -151.5t-55.5 -208.5
t55.5 -208.5t151.5 -151.5t209 -56t209 56t151.5 151.5t55.5 208.5q0 85 -33 162t-88.5 132.5t-132.5 88.5t-162 33zM827 433l-69 -221q-6 -32 -33.5 -54.5t-60.5 -22.5h-350q-16 0 -31 6t-25.5 16.5t-16.5 25.5t-6 31v218q0 21 10.5 39.5t28.5 29t40 10.5h96l124 188
q4 7 12 9.5t15 -1.5l57 -29q7 -4 11 -12t2 -16l-20 -139h152q21 0 37.5 -10.5t23.5 -28.5t3 -39zM560 664l-108 -153h120l18 137zM784 463q-7 8 -21 8l-200 -1l8 41h-118l-27 -40h-112q-17 0 -28.5 -11.5t-11.5 -27.5v-218q0 -8 3 -15.5t8.5 -12.5t13 -8.5t15.5 -3.5h73v297
h40v-297h237q19 0 35.5 14t19.5 32l69 221q3 13 -4 22zM472 539l-23 -34l120 -5l7 40z" />
    <glyph glyph-name="uniE638" unicode="&#xe638;" 
d="M512 780q-98 0 -186.5 -38t-153 -102.5t-102.5 -153t-38 -186.5t38 -186.5t102.5 -153t153 -102.5t186.5 -38t186.5 38t153 102.5t102.5 153t38 186.5t-38 186.5t-102.5 153t-153 102.5t-186.5 38zM200 -2l47 75l30 -30zM293 50l-37 36l82 131l2 4l92 -90zM447 143
l-94 92l309 301l94 -92zM804 491l-27 -26l-94 92l27 26q19 19 47 19t47 -19q8 -7 12.5 -16.5t6 -19.5t0 -20t-6 -19t-12.5 -17z" />
    <glyph glyph-name="uniE639" unicode="&#xe639;" 
d="M956 -53h-887q-7 0 -10 6.5t2 11.5l303 359q3 4 7.5 4t8.5 -3l132 -108l133 112l4 2q2 1 4 0.5t4 -1.5l4 -2l304 -363q4 -5 1 -11.5t-10 -6.5zM92 -31h841l-282 336l-131 -111q-7 -6 -14 0l-132 108zM992 -52q-5 0 -8 4l-319 380l-2 4q-1 2 -0.5 4t1.5 4t2 3l319 270
q3 2 6 2.5t6 -1.5q6 -2 6 -9v-650q0 -4 -2 -6.5t-5 -4.5h-2h-2zM689 337l292 -348v596zM513 231q-4 0 -7 2l-477 402q-3 2 -4 5t0 7q3 7 11 7h954q3 0 6 -2t4 -5.5t0 -6.5t-3 -5l-477 -402q-2 -1 -3.5 -1.5t-3.5 -0.5zM65 632l448 -376l447 376h-895zM32 -52h-4q-3 2 -5 4.5
t-2 6.5v650q0 7 6 9q3 2 6.5 1.5t5.5 -2.5l319 -270q8 -7 1 -15l-319 -380q-3 -4 -8 -4zM43 585v-596l292 349z" />
    <glyph glyph-name="uniE63A" unicode="&#xe63a;" 
d="M352 620h383q26 0 48 -13t34.5 -35t12.5 -48v-382q0 -40 -28 -68t-67 -28h-383q-40 0 -68 28t-28 68v382q0 26 13 48t35 35t48 13zM694 530l-39 26q-13 9 -28 10.5t-28.5 -4.5t-21.5 -18l-31 -45l135 -91l31 45q12 18 7 41t-25 36zM370 114l90 11l-93 70zM369 240
l135 -91l157 230l-134 91z" />
    <glyph glyph-name="uniE63B" unicode="&#xe63b;" 
d="M898 -22l-66 -67l-181 182q-86 -66 -192 -66q-86 0 -159 43t-115.5 116.5t-42.5 160.5q0 29 5.5 57.5t15 54t23 49.5t31 44.5t38 38.5t44.5 32t49.5 23.5t53.5 14.5t57 5q64 0 123 -25t101 -68t67.5 -102t25.5 -124q0 -103 -60 -186zM459 589q-49 0 -93.5 -19
t-76.5 -51.5t-51 -77.5t-19 -94q0 -100 70.5 -171t169.5 -71q49 0 93.5 19t76.5 51.5t51 77.5t19 94q0 100 -70.5 171t-169.5 71z" />
    <glyph glyph-name="uniE63C" unicode="&#xe63c;" 
d="M512 748q-52 0 -102.5 -11.5t-94.5 -34t-83 -53t-69.5 -69.5t-53 -83t-34 -94.5t-11.5 -102.5q0 -91 35.5 -174t95.5 -143t143 -95.5t174 -35.5t174 35.5t143 95.5t95.5 143t35.5 174q0 61 -16 119t-45 107t-70.5 90.5t-90.5 70.5t-107 45t-119 16zM372 80v-1t-1 -3
t-2.5 -4t-5 -3t-7.5 -1h-77h-1h-3q-2 0 -4 1t-4 2.5t-3.5 3t-2.5 5t-1 7.5l-19 298q0 2 0.5 5t5.5 8t13 5h89q3 0 6.5 -0.5t10 -6t6.5 -15.5v-301zM727 123q-17 -55 -38 -55h-223q-10 0 -22 3.5t-23 13t-11 22.5v297q5 3 12.5 9t26.5 26t33.5 40.5t26.5 51t12 59.5q0 1 1 8
t2.5 13t9.5 11.5t23 5.5q4 -1 10 -3t19.5 -15t21 -34.5t6.5 -67t-18 -104.5h149q1 -1 4.5 -0.5t9 -1.5t11 -5t9.5 -10.5t4 -18.5q0 -56 -55 -243q0 -1 -1 -2z" />
    <glyph glyph-name="uniE63D" unicode="&#xe63d;" 
d="M916 321q-11 0 -18.5 -7.5t-7.5 -17.5v-365q0 -6 -4.5 -10.5t-10.5 -4.5h-737q-6 0 -10.5 4.5t-4.5 10.5v365q0 7 -3.5 12.5t-9.5 9t-13 3.5q-10 0 -17.5 -7.5t-7.5 -17.5v-365q0 -27 19.5 -46.5t46.5 -19.5h737q28 0 47.5 19.5t19.5 46.5v365q-7 20 -26 25zM489 36
q1 -2 3.5 -3.5t4.5 -2t4.5 -1t5.5 -0.5q10 0 18 7l241 242q8 7 8 17.5t-8 18.5q-3 4 -8 5.5t-10 1.5t-9.5 -1.5t-8.5 -5.5l-198 -198v593q0 11 -7.5 18.5t-18 7.5t-18 -7.5t-7.5 -18.5v-593l-198 198q-7 7 -17.5 7t-18 -7.5t-7.5 -18t7 -17.5z" />
    <glyph glyph-name="uniE63E" unicode="&#xe63e;" 
d="M1019 598l-313 -268l-194 -159l-193 158l-314 269q-4 -10 -4 -18v-568q0 -5 1 -10q4 -22 21 -36.5t40 -14.5h898q20 0 36 12t22 30q4 10 4 19v568q0 4 -1 8.5t-3 9.5zM424 315l88 -71l88 71l44 37l335 286q-5 1 -9 2t-9 1h-899q-7 0 -17 -3l335 -287z" />
    <glyph glyph-name="uniE63F" unicode="&#xe63f;" 
d="M511 -147q-91 0 -174 35.5t-143 95.5t-95.5 143t-35.5 174t35.5 174t95.5 143t143 95.5t174 35.5t174 -35.5t143 -95.5t95.5 -143t35.5 -174q0 -52 -11.5 -102.5t-34 -94.5t-53 -83t-69.5 -69.5t-83 -53t-94.5 -34t-102.5 -11.5zM741 440q-28 35 -70.5 43t-83.5 -13
q-11 -5 -21 -12.5t-17.5 -15t-14 -15t-10.5 -14t-7 -12t-5 -8.5l-1 -3q-25 62 -89 87q-25 11 -47.5 10t-42 -11t-34.5 -25t-24.5 -32t-12.5 -34q-24 -75 16 -133q21 -31 82.5 -79t73.5 -60l79 -69l6 6q5 5 27.5 25.5t56.5 49.5q17 17 66.5 56.5t63.5 60.5q26 38 32.5 79.5
t-1 70t-22.5 48.5zM741 440z" />
    <glyph glyph-name="uniE640" unicode="&#xe640;" 
d="M480 748q-98 0 -186.5 -38t-153 -102.5t-102.5 -153t-38 -186.5t38 -186.5t102.5 -153t153 -102.5t186.5 -38t186.5 38t153 102.5t102.5 153t38 186.5t-38 186.5t-102.5 153t-153 102.5t-186.5 38zM480 -148q-172 0 -294 122t-122 294t122 294t294 122t294 -122t122 -294
t-122 -294t-294 -122zM631 546q-9 10 -22.5 10t-22.5 -10l-321 -320q-9 -10 -9 -23v-127q0 -13 9.5 -22.5t22.5 -9.5h128q13 0 23 9l192 192q9 10 9 23t-9.5 22.5t-22.5 9.5t-23 -9l-182 -183h-83v82l289 288l83 -83l-19 -19l-41 42q-10 9 -23 9t-22.5 -9.5t-9.5 -22.5
t9 -23l64 -64q10 -9 23 -9t23 9l64 64q6 7 8 15t0 16t-8 15z" />
    <glyph glyph-name="uniE641" unicode="&#xe641;" 
d="M480 748q-98 0 -186.5 -38t-153 -102.5t-102.5 -153t-38 -186.5t38 -186.5t102.5 -153t153 -102.5t186.5 -38t186.5 38t153 102.5t102.5 153t38 186.5t-38 186.5t-102.5 153t-153 102.5t-186.5 38zM760 372l-64 -64q-10 -9 -23 -9t-23 9l-64 64q-6 7 -8 15t0 16t8 15
q10 9 23 9t23 -9l41 -42l19 19l-83 83l-289 -288v-82h83l182 183q10 9 23 9t23 -9q4 -5 6.5 -11t2.5 -12t-2.5 -12t-6.5 -11l-192 -192q-10 -9 -23 -9h-128q-13 0 -22.5 9.5t-9.5 22.5v127q0 4 1 8t3 8t5 7l321 320q9 10 22.5 10t22.5 -10l129 -128q9 -10 9 -23t-9 -23z" />
    <glyph glyph-name="uniE642" unicode="&#xe642;" 
d="M921 480q-1 3 -3 8t-10 20.5t-17.5 30.5t-26 36.5t-35 40.5t-45 40t-55.5 37t-66.5 29.5t-78.5 20.5q-5 1 -14 2.5t-37.5 3t-57 -0.5t-69.5 -11.5t-79 -26.5t-81.5 -49t-79.5 -75q-7 -7 -17 -20.5t-33.5 -57t-37 -90t-14 -117t22.5 -140.5q1 -4 3.5 -11.5t13 -30.5
t23.5 -45t36.5 -51.5t50.5 -54.5t67.5 -49.5t86.5 -39.5q7 -3 20.5 -7.5t54 -11t82.5 -5.5q5 0 15 0.5t40 5t60 13.5t70 28.5t75 46.5t71.5 71t62.5 99q3 7 8.5 19.5t16 52t14 79.5t-4.5 98t-32 112zM731 270l-222 -249l-222 248v1q-15 18 -23 40t-8 46q0 37 19 68.5t51 50
t71 18.5q70 0 112 -54q20 25 49 39.5t63 14.5q38 0 70.5 -18.5t51.5 -50t19 -68.5q0 -49 -31 -86z" />
    <glyph glyph-name="uniE643" unicode="&#xe643;" 
d="M700 90h-304q-10 0 -17 7t-7 17t7 17t17 7h304q10 0 17 -7t7 -17t-7 -17t-17 -7zM716 310q0 -3 -1 -6.5t-2.5 -6t-3.5 -4.5t-4.5 -3.5t-6 -2.5t-6.5 -1h-304q-10 0 -17 7t-7 17q0 4 1.5 7.5t3.5 6.5t5 5t6.5 3.5t7.5 1.5h304q5 0 9.5 -2t7.5 -5t5 -7.5t2 -9.5zM216 114
q0 -7 2 -13t5.5 -11t8.5 -8.5t11 -5.5t13 -2q11 0 20 5.5t14.5 14.5t5.5 20q0 16 -12 28t-28 12q-28 0 -38 -26q-2 -7 -2 -14zM216 310q0 -8 3 -15.5t8.5 -13t13 -8.5t15.5 -3q16 0 28 11.5t12 28t-12 28.5t-28.5 12t-28 -12t-11.5 -28zM711 506q0 -10 -7 -17t-17 -7h-304
q-7 0 -12.5 3t-8.5 8.5t-3 12.5q0 10 7 17t17 7h304q10 0 17 -7t7 -17zM216 506q0 -8 3 -15.5t8.5 -13t13 -8.5t15.5 -3q16 0 28 11.5t12 28t-12 28.5t-28 12q-6 0 -11 -1.5t-9.5 -4t-8 -6.5t-6 -8t-4 -9.5t-1.5 -10.5zM792 704h-656q-13 0 -22.5 -9.5t-9.5 -22.5v-864
q0 -13 9.5 -22.5t22.5 -9.5h496l192 192v704q0 13 -9.5 22.5t-22.5 9.5zM776 32h-176q-13 0 -22.5 -9.5t-9.5 -22.5v-176h-384q-13 0 -22.5 9.5t-9.5 22.5v768q0 13 9.5 22.5t22.5 9.5h560q13 0 22.5 -9.5t9.5 -22.5v-592zM888 800h-668q-20 0 -34 -14t-14 -34h668
q13 0 22.5 -9.5t9.5 -22.5v-668q20 0 34 14t14 34v668q0 13 -9.5 22.5t-22.5 9.5z" />
    <glyph glyph-name="uniE644" unicode="&#xe644;" 
d="M787 401l-35 39l-214 -193v382h-52v-382l-213 194l-35 -38l274 -250zM844 221v-190h-664v190h-52v-242h768v242h-52z" />
    <glyph glyph-name="uniE645" unicode="&#xe645;" 
d="M821 831h-618q-38 0 -70 -18.5t-50.5 -51t-18.5 -71.5v-612q0 -39 18.5 -71.5t50.5 -51t70 -18.5h618q57 0 98 41t41 100v612q0 59 -41 100t-98 41zM849 92q0 -8 -3.5 -15.5t-9 -13t-13 -9t-15.5 -3.5h-586q-17 0 -29 12t-12 29v586q0 17 12 29t29 12h586q11 0 20.5 -5.5
t15 -15t5.5 -20.5v-586zM236 664h557v-56h-557v56zM236 553h557v-56h-557v56zM236 440h557v-56h-557v56zM661 199l-104 112q-18 19 -45 19t-45 -19h-1l-101 -110q-17 -16 -17 -39q0 -6 1.5 -12t4 -11.5t6 -10t8.5 -8t10 -6t11 -4t13 -1.5h222q22 1 37 16.5t15 37t-15 36.5z
" />
    <glyph glyph-name="uniE646" unicode="&#xe646;" 
d="M851 575h-676q-28 0 -48 -20t-20 -48v-414q0 -28 20 -48t48 -20h676q28 0 48 20t20 48v414q0 19 -9 34.5t-25 24.5t-34 9v0zM817 517l-255 -225q-16 -15 -28.5 -22.5t-20.5 -7.5q-16 0 -49 30l-254 225h607v0zM166 115v359l202 -177l-202 -182v0zM216 84l196 174l33 -28
q28 -25 68 -25q14 0 26 3t23 8.5t20 13.5l32 28l197 -174h-595v0zM860 115l-202 182l202 177v-359v0zM860 115z" />
    <glyph glyph-name="uniE647" unicode="&#xe647;" 
d="M352 461h322v-35h-322v35zM352 343h322v-35h-322v35zM352 224h214v-35h-214v35zM238 -66l40 133q-66 51 -104 110q-45 71 -45 145q0 22 3.5 44t10.5 43t18 42q30 58 84 104q53 45 122 70q23 9 47 14.5t48 8.5t49 3q159 0 271 -96q53 -45 82 -105q30 -61 30 -128.5
t-30 -128.5q-29 -59 -82 -104q-54 -47 -124 -71.5t-147 -24.5q-45 0 -127 21zM511 620q-94 0 -175 -40.5t-129 -109.5t-48 -148q0 -62 37.5 -123t108.5 -114l8 -6l-24 -82l90 49l6 -1q28 -7 43.5 -10.5t39.5 -7t43 -3.5q96 0 177 40t128 108.5t47 149.5q0 119 -98 206
q-107 90 -254 92z" />
    <glyph glyph-name="uniE648" unicode="&#xe648;" 
d="M241 -148v198q-68 57 -105.5 135t-37.5 165q0 81 33 156q32 71 89 126q29 27 62 48.5t69 36.5q77 31 161 31q42 0 82 -7.5t79 -23.5q24 -10 47 -22.5t44 -28.5t40 -34q57 -55 89 -126q33 -75 33 -156q0 -40 -8.5 -79t-24.5 -76q-32 -72 -89 -127t-131 -85
q-26 -10 -52.5 -17t-53.5 -10.5t-55 -3.5h-15zM512 687q-146 0 -249 -99t-103 -238q0 -76 34 -144.5t96 -116.5l12 -10v-137l184 72h26q71 0 135.5 25.5t113.5 73.5q103 98 103 237t-103 238q-19 19 -42 34.5t-47 27.5t-50.5 20.5t-54 12.5t-55.5 4zM709 390h-369
q-9 0 -16 4t-11 11t-4 15q0 13 9 22t22 9h368q7 0 12.5 -2.5t9.5 -6.5t6.5 -9.5t2.5 -12.5q0 -8 -4 -15t-11 -11t-15 -4zM610 230h-270q-13 0 -22 9t-9 22t9 22t22 9h270q13 0 22 -9t9 -22t-9 -22t-22 -9z" />
    <glyph glyph-name="uniE649" unicode="&#xe649;" 
d="M835 -125h-196q-10 0 -20 2.5t-19 7t-16.5 11t-13.5 14.5t-10.5 17t-7 19.5t-2.5 20.5v203q0 38 26 65t63 27h196q37 0 63 -27t26 -65v-203q1 -38 -26 -65q-12 -13 -28.5 -20t-34.5 -7zM639 228q-23 0 -39.5 -17t-16.5 -41v-203q0 -16 7.5 -29.5t20.5 -21t28 -7.5h196
q24 0 40 17q8 8 12.5 19t4.5 22v203q0 24 -16.5 41t-40.5 17h-196zM410 -125h-196q-25 0 -45.5 12.5t-32.5 33.5t-12 46v203q0 38 26.5 65t63.5 27h196q37 0 63 -27t26 -65v-203q0 -38 -26 -65t-63 -27zM214 228q-16 0 -29 -7.5t-20.5 -21t-7.5 -29.5v-203q0 -16 7.5 -29.5
t20.5 -21t29 -7.5h196q23 0 39.5 17t16.5 41v203q0 24 -16.5 41t-39.5 17h-196zM410 310h-196q-37 0 -63.5 27t-26.5 65v203q0 25 12 46t32.5 33.5t45.5 12.5h196q37 0 63 -27t26 -65v-203q0 -38 -26 -65t-63 -27zM214 663q-16 0 -29 -7.5t-20.5 -21t-7.5 -29.5v-203
q0 -24 16.5 -41t40.5 -17h196q15 0 28 7.5t20.5 21t7.5 29.5v203q0 24 -16.5 41t-39.5 17h-196zM831 319h-187q-23 0 -43 11.5t-31.5 32t-11.5 44.5v193q0 18 7 34.5t18.5 28t27 18.5t33.5 7h187q10 0 19.5 -2.5t18 -6.5t16 -10t13 -14t10 -16.5t6.5 -18.5t2 -20v-193
q0 -37 -25 -62q-12 -13 -27.5 -19.5t-32.5 -6.5zM644 655q-15 0 -27 -7.5t-19 -20t-7 -27.5v-193q0 -9 2.5 -17.5t7.5 -15t11.5 -11.5t14.5 -8t17 -3h187q3 0 6.5 0.5t7 1.5t6.5 2t6 3l6 4q3 2 5 5q8 8 12 18t4 21v193q0 23 -15.5 39t-37.5 16h-187zM644 655z" />
    <glyph glyph-name="uniE64A" unicode="&#xe64a;" 
d="M797 474l-2 4l-2 4q-1 2 -3 4l-167 183q-5 6 -14 10q-8 4 -19 4h-320q-18 0 -31.5 -14t-13.5 -34v-670q0 -20 13.5 -35t31.5 -15h487q18 0 31 15t13 35v488q0 12 -4 21zM321 455q0 4 7 4h141q3 0 4.5 -1t1.5 -3v-22q0 -6 -6 -6h-141q-3 0 -5 2t-2 4v22zM321 199q0 4 7 4
h244q5 0 5 -4v-22q0 -6 -5 -6h-244q-3 0 -5 2t-2 4v22zM641 49q0 -6 -5 -6h-308q-3 0 -5 2t-2 4v22q0 4 7 4h308q4 -2 5 -4v-22zM705 305q0 -6 -5 -6h-372q-3 0 -5 2t-2 4v22q0 4 7 4h372q3 0 4 -1t1 -3v-22zM611 457q-8 0 -15 7t-7 16v132l142 -155h-120z" />
    <glyph glyph-name="uniE64B" unicode="&#xe64b;" 
d="M258 378l203 -202q5 -5 11 -9t12.5 -6.5t13.5 -4t14 -1.5q30 0 51 21l203 202q3 4 5.5 8t4 8t2 8.5t0 9t-2 8.5t-4 8t-5.5 8q-12 12 -29 12q-5 0 -10.5 -1.5t-10 -4t-8.5 -6.5l-155 -156v438q0 17 -12 28.5t-29 11.5t-29 -11.5t-12 -28.5v-438l-155 156q-12 12 -29 12
t-28.5 -12t-11.5 -29t11 -29zM812 651q-11 0 -20.5 -5.5t-15 -14.5t-5.5 -20t5.5 -20.5t15 -15t20.5 -5.5q36 0 62 -25.5t26 -62.5v-471q0 -37 -26 -62.5t-62 -25.5h-600q-14 0 -27.5 4.5t-24.5 12.5t-19 19t-12.5 24t-4.5 28v471q0 37 26 62.5t62 25.5q8 0 15.5 3.5t13 8.5
t9 12.5t3.5 16.5q0 16 -12 28t-29 12q-20 0 -39 -4.5t-35.5 -12.5t-31 -20t-26 -26.5t-20 -31t-13 -35.5t-4.5 -39v-471q0 -70 49.5 -119.5t119.5 -49.5h600q70 0 119.5 49.5t49.5 119.5v471q0 23 -6 45t-17 40.5t-26.5 34t-34 26.5t-40.5 17t-45 6z" />
    <glyph glyph-name="uniE64C" unicode="&#xe64c;" 
d="M915 454q-19 32 -89 102q-39 38 -103 90q-60 44 -89 44h-372q-33 0 -58 -24.5t-25 -58.5v-736q0 -33 25 -58t58 -25h608q34 0 59 25t25 58v493q11 23 -39 90zM787 511q21 -20 31 -30.5t22 -25.5t18 -27h-154v154q52 -39 83 -71v0zM896 -129q0 -6 -5.5 -12.5t-13.5 -6.5
h-608q-3 0 -6 1t-6 3.5t-5 6.5t-2 8v736q0 4 2 8t6.5 7.5t10.5 3.5h371v-224q0 -14 9 -23t23 -9h224v-499zM602 767q-35 26 -56.5 35.5t-33.5 9.5h-371q-34 0 -58.5 -25t-24.5 -58v-736q0 -29 17.5 -50.5t46.5 -26.5v813q0 3 2 7.5t6.5 8t10.5 3.5h486q-14 13 -25 19z" />
    <glyph glyph-name="uniE64D" unicode="&#xe64d;" 
d="M732 521q-30 80 -93.5 124.5t-156.5 44.5q-79 0 -142.5 -36.5t-100 -99t-41.5 -140.5q-59 -19 -96.5 -73t-37.5 -121q0 -83 56 -143.5t133 -60.5h25q11 0 19.5 8.5t8.5 20t-8.5 19.5t-19.5 8h-25q-54 0 -94 44t-40 104q0 52 32.5 94t78.5 50l26 5l-2 25l-1 1
q0 103 63 171t166 68q157 0 203 -148l6 -20h20q79 -2 137 -58t58 -134q0 -76 -45 -139t-114 -63h-8q-7 0 -13.5 -3.5t-10.5 -10t-4 -14.5q0 -11 8.5 -19.5t19.5 -8.5v1q67 1 119 41t77 97t25 119q0 96 -66 166t-162 81zM512 311q-6 0 -11 -2t-9 -6t-6 -9t-2 -11v-282l-60 67
q-6 6 -14 6.5t-14 -5.5l-7 -4q-6 -6 -6 -14.5t6 -14.5l101 -112v0l7 -8q6 -6 14.5 -6t14.5 6l7 8v0l104 114q12 13 0 26l-7 5q-6 7 -14.5 7t-13.5 -7l-62 -68v282q0 12 -8.5 20t-19.5 8z" />
    <glyph glyph-name="uniE64E" unicode="&#xe64e;" horiz-adv-x="1230" 
d="M1024 218h-382q-10 0 -17 -7t-7 -17v-382q0 -4 1 -7.5t3.5 -6.5t5.5 -5.5t6.5 -3.5t7.5 -1h382q10 0 17 7t7 17v382q0 7 -3 12.5t-8.5 8.5t-12.5 3zM1024 -188h-382v382h382v-382zM501 218h-382q-5 0 -9.5 -1.5t-7.5 -5t-5 -8t-2 -9.5v-382q0 -5 2 -9.5t5 -7.5t7.5 -5
t9.5 -2h382q7 0 12.5 3t8.5 8.5t3 12.5v382q0 5 -1.5 9.5t-5 8t-8 5t-9.5 1.5zM501 -188h-382v382h382v-382zM501 744h-382q-10 0 -17 -7t-7 -17v-383q0 -4 2 -8.5t5 -8t7.5 -5t9.5 -1.5h382q7 0 12.5 3t8.5 8.5t3 11.5v383q0 7 -3 12.5t-8.5 8.5t-12.5 3zM501 338h-382v381
h382v-381zM1126 555l-250 250q-7 7 -17 7t-17 -7l-250 -250q-7 -8 -7 -17.5t7 -16.5l250 -251q7 -7 17 -7q5 0 9 2t8 5l250 251q7 7 7 17q0 3 -0.5 6t-2 5.5t-4.5 5.5zM859 289l-249 249l249 249l249 -249zM859 321z" />
    <glyph glyph-name="uniE64F" unicode="&#xe64f;" 
d="M515 805q-81 0 -158 -25t-138.5 -71.5t-108 -108.5t-72 -138.5t-25.5 -158t25.5 -158.5t72 -138.5t108 -108t138.5 -72t158 -25.5q68 0 133.5 18t120.5 50.5t101 79t78.5 101.5t50.5 120t18 133q0 102 -39.5 195t-107 160.5t-160.5 107t-195 39.5zM515 -146
q-91 0 -174 35.5t-143.5 96t-96 143.5t-35.5 174.5t35.5 174.5t96 143t143.5 96t174 36q61 0 119.5 -16.5t107.5 -45.5t90.5 -70.5t70.5 -90.5t45.5 -107.5t16.5 -119.5q0 -52 -12 -102.5t-34 -94.5t-53 -83t-70 -70t-83 -53t-94.5 -34t-103.5 -12zM304 478h-26
q-6 0 -10 -3.5t-4 -9.5v-26q0 -3 1 -5.5t3 -4t4.5 -2.5t5.5 -1h26q5 0 9 3.5t4 9.5v26q0 6 -4 9.5t-9 3.5zM304 333h-26q-3 0 -5.5 -1t-4.5 -3t-3 -4.5t-1 -4.5v-26q0 -3 1 -5.5t3 -4.5t4.5 -3t5.5 -1h26q3 0 5 1t4 3t3 4.5t1 5.5v26q0 2 -1 4.5t-3 4.5t-4.5 3t-4.5 1z
M304 181h-26q-6 0 -10 -4t-4 -9v-26q0 -3 1 -5.5t3 -4.5t4.5 -3t5.5 -1h26q5 0 9 4t4 10v26q0 3 -1 5t-3 4t-4.5 3t-4.5 1zM753 478h-370q-5 0 -9 -3.5t-4 -9.5v-26q0 -6 4 -9.5t9 -3.5h370q6 0 9.5 3.5t3.5 9.5v26q0 6 -3.5 9.5t-9.5 3.5zM753 333h-370q-5 0 -9 -4t-4 -9
v-26q0 -14 13 -14h370q6 0 9.5 4t3.5 10v26q0 3 -1.5 6.5t-4.5 5t-7 1.5zM753 181h-370q-5 0 -9 -4t-4 -9v-26q0 -6 4 -10t9 -4h370q6 0 9.5 4t3.5 10v26q0 5 -3.5 9t-9.5 4z" />
    <glyph glyph-name="uniE650" unicode="&#xe650;" 
d="M512 810q-188 0 -331 -122q-136 -117 -170 -292q-9 -48 -9 -96q0 -104 40.5 -198t109 -162.5t162.5 -109t198 -40.5t198 40.5t162.5 109t109 162.5t40.5 198t-40.5 198t-109 162.5t-162.5 109t-198 40.5zM353 50q0 -2 -0.5 -4t-5 -6t-13.5 -4h-87q-3 0 -6.5 0.5t-9.5 6
t-6 14.5l-21 340l4 13q7 7 17 8h102q3 0 7 -1t11.5 -7.5t7.5 -17.5v-342zM757 99q-2 -7 -6 -17.5t-15.5 -28t-21.5 -17.5h-255q-19 0 -41 11.5t-22 33.5v337q3 2 7.5 5.5t17.5 15.5t25 25t26.5 32.5t25 39t17.5 44.5t7 50q1 1 1.5 9t2.5 15t11.5 13t25.5 6q2 0 6 -1t14 -7
t18.5 -15.5t16 -29.5t10.5 -45.5t-2 -66.5t-18 -90h169q1 -1 5 -0.5t10.5 -1.5t12.5 -5.5t10.5 -12.5t4.5 -21q0 -65 -63 -278z" />
    <glyph glyph-name="uniE651" unicode="&#xe651;" 
d="M1004 -66l-134 -127q-14 -14 -35 -14q-7 0 -13.5 2t-12 5t-9.5 7l-67 64q-15 14 -15 34q0 6 2 12t5 11.5t7.5 10t10 7.5t12 4.5t13.5 1.5q4 0 8 -0.5t8 -1.5t7.5 -3t6.5 -4t6 -5l31 -30l98 94q15 14 35.5 14t35.5 -14t15 -33.5t-15 -34.5zM834 -25q-28 25 -66 25
q-27 0 -50 -12.5t-36.5 -34.5t-13.5 -48q0 -40 30 -68h-1l46 -44h-693q-21 0 -35.5 14t-14.5 34v828q0 19 14.5 33t35.5 14h84v-47q0 -40 29 -68t70.5 -28t71 28t29.5 68v47h50v-47q0 -26 13.5 -48t36.5 -35t50 -13q42 0 71 28t29 68v47h51v-47q0 -20 7.5 -37.5t21 -30.5
t32 -20.5t39 -7.5t39 7.5t32 20.5t21.5 30.5t8 37.5v47h83q21 0 36 -14t15 -33v-605q-42 0 -71 -28zM134 -8q0 -11 5.5 -20t15 -14.5t20.5 -5.5h318q17 0 29 12t12 28v0v0q0 17 -12 28.5t-29 11.5h-318q-17 0 -29 -11.5t-12 -28.5zM785 446h-601q-21 0 -35.5 -14t-14.5 -34
t14.5 -34t35.5 -14h601q21 0 35.5 14t14.5 34q0 31 -30 44q-10 4 -20 4zM785 239h-301h-83h-217q-14 0 -25.5 -6.5t-18 -17.5t-6.5 -24q0 -20 14.5 -34t35.5 -14h217h83h301q21 0 35.5 14t14.5 34t-14.5 34t-35.5 14zM735 621q-21 0 -35.5 14t-14.5 34v95q0 4 0.5 8.5t2 8.5
t4 7.5t5 6.5t6 5.5t7 4.5t7.5 3.5t8.5 2.5t9.5 1q13 0 25 -6.5t18.5 -17.5t6.5 -24v-95q0 -13 -6.5 -24t-18.5 -17.5t-25 -6.5zM484.5 621q-20.5 0 -35.5 14t-15 34v95q0 5 1 9.5t3 9t4.5 8.5t6 7t7.5 5.5t8.5 4.5t9.5 3t10 1q14 0 25.5 -6.5t18 -17.5t6.5 -24v-95
q0 -20 -14.5 -34t-35 -14zM234 621q-21 0 -35.5 14t-14.5 34v95q0 13 6.5 24t18 17.5t25.5 6.5q21 0 35.5 -14t14.5 -34v-95q0 -10 -4 -19t-10.5 -15.5t-16 -10t-19.5 -3.5z" />
    <glyph glyph-name="uniE652" unicode="&#xe652;" 
d="M962 544v4v6q-1 2 -1.5 4t-1 3.5t-1.5 3t-2 3.5t-3.5 3.5t-5.5 2.5t-6 1.5t-5.5 1t-5 0.5t-3.5 -1h-1h-826q-24 3 -31 -8q-4 -4 -5 -14q-1 -5 -1 -10v-4v-310v-213l2 -23q2 -6 4 -8q6 -5 13.5 -7t11.5 -1h4h328h173h328q2 0 5 -0.5t10.5 1.5t13.5 7t6 31v213v310v4z
M890 539l-348 -361q-12 -12 -29.5 -12t-29.5 12l-347 361h754zM99 524l234 -243l-234 -242v485zM588 16h-150h-310l230 239l99 -103q11 -12 25.5 -18t30.5 -6v0q10 0 20 2.5t19 8t16 13.5l99 103l230 -239h-309zM926 39l-233 242l233 243v-485z" />
    <glyph glyph-name="uniE653" unicode="&#xe653;" 
d="M808 -144h-595q-61 0 -104.5 43.5t-43.5 105.5v260q0 15 11 26t26 11t26 -11t11 -26v-260q0 -20 10 -37.5t27 -27.5t37 -10h595q31 0 52.5 22t21.5 53v260q0 10 5 18.5t13.5 13.5t18.5 5q16 0 27 -11t11 -26v-260q0 -62 -44 -105.5t-105 -43.5zM476 229v483q0 10 4.5 18
t13 13t18.5 5q14 0 25 -10.5t11 -25.5v-480l242 241q10 11 25 11t25 -11q7 -6 9.5 -15.5t0 -18.5t-9.5 -16q-304 -306 -305 -306q-9 -9 -21 -9h-4q-13 0 -22 9l-307 305q-10 11 -10 26t10.5 25.5t25 10.5t25.5 -11z" />
    <glyph glyph-name="uniE654" unicode="&#xe654;" 
d="M513 894q-84 0 -162 -22t-140.5 -62.5t-110 -94.5t-73.5 -121t-26 -138q0 -100 52 -189.5t146 -153.5q12 -8 27 -5.5t23.5 15t5.5 27.5t-15 24q-79 53 -122.5 127t-43.5 155q0 99 59 183t160 133t219.5 49t219.5 -49t160 -133t59 -183q0 -42 -11.5 -83t-33 -77t-51.5 -68
t-68.5 -57t-81.5 -43t-92 -27.5t-100 -9.5q-2 0 -5 -1h-2q-13 2 -24.5 -4.5t-16.5 -18.5q-10 -29 -107 -84q20 66 4 90q-4 5 -9.5 9.5t-11.5 6.5t-13 2q-15 0 -26 -10.5t-11 -26.5q0 -4 1.5 -9t3.5 -9q-7 -37 -38 -114q-2 -7 -2 -14t2.5 -13.5t8.5 -12.5q2 -2 4.5 -3.5
t4.5 -2.5l6 -2q2 -1 4.5 -1.5t5.5 -0.5q8 0 15 3q32 15 65.5 32t81 49.5t67.5 62.5q137 2 253 60.5t183 159t67 217.5q0 161 -123 284q-121 122 -305 148q-42 6 -83 6zM317 525q-28 0 -47 -19.5t-19 -46.5q0 -17 9 -32.5t24 -24t33 -8.5q27 0 46 19t19 46t-19 46.5t-46 19.5
zM514 525q-28 0 -47 -19.5t-19 -46.5t19 -46t46.5 -19t46.5 19t19 46t-19 46.5t-46 19.5zM711 525q-28 0 -47 -19.5t-19 -46.5q0 -17 8.5 -32.5t24 -24t33.5 -8.5q27 0 46 19t19 46t-19 46.5t-46 19.5z" />
    <glyph glyph-name="uniE655" unicode="&#xe655;" 
d="M867 713v-546h-273h-34l-15 -30l-33 -66l-33 66l-15 30h-34h-273v546h710zM867 768h-710q-15 0 -27 -6t-19.5 -18.5t-7.5 -30.5v-546q0 -26 15 -40t39 -14h273l82 -164l82 164h273q24 0 39 14t15 40v546q0 14 -4 24.5t-11.5 17t-17.5 10t-21 3.5zM321 444zM290 444
q0 12 9 21t22 9q8 0 15 -4t11.5 -11t4.5 -15q0 -13 -9 -22t-22 -9q-8 0 -15.5 4t-11.5 11t-4 16zM512 444zM481 443.5q0 12.5 9 21.5t22 9t22 -9t9 -21.5t-9 -21.5t-22 -9t-22 9t-9 21.5zM703 444zM672 443.5q0 12.5 9 21.5t22 9t22 -9t9 -21.5t-9 -21.5t-22 -9t-22 9
t-9 21.5z" />
    <glyph glyph-name="uniE656" unicode="&#xe656;" 
d="M163 129zM512 812q-83 0 -161.5 -26t-141.5 -73t-110 -110t-73 -141.5t-26 -161.5q0 -104 40.5 -199t109 -163.5t163.5 -109t199 -40.5t199 40.5t163.5 109t109 163.5t40.5 199t-40.5 199t-109 163.5t-163.5 109t-199 40.5zM283 48q-11 0 -21 4.5t-17.5 12t-11.5 17.5
t-4 21q0 22 16 38t38 16q15 0 27.5 -7.5t20 -20t7.5 -26.5q0 -9 -2.5 -17.5t-8 -15t-12 -11.5t-15 -8t-17.5 -3zM283 245q-23 0 -38.5 16t-15.5 39q0 11 4 21.5t11.5 17.5t17.5 11.5t21 4.5q22 0 38.5 -16.5t16.5 -38.5t-16 -38.5t-39 -16.5zM283 441q-23 0 -38.5 16.5
t-15.5 39.5t15.5 39t38.5 16q12 0 22 -4.5t17 -12t11.5 -17.5t4.5 -21q0 -22 -16 -39t-39 -17zM775 72h-333q-8 0 -14 6t-6 14t6 14t14 6h333q4 0 7 -1t5.5 -3t4 -4.5t2.5 -5.5t1 -6t-0.5 -5.5t-2.5 -4.5l-2 -4q-2 -2 -4.5 -3.5t-5 -2t-5.5 -0.5zM775 272h-333
q-4 0 -7.5 1.5t-6.5 4.5t-4.5 6.5t-1.5 7.5q0 5 2.5 9.5t7.5 7.5t10 3h333q4 0 8 -1.5t6.5 -4.5t4 -6.5t1.5 -7.5q0 -8 -6 -14t-14 -6zM775 485h-333q-5 0 -10 3t-7.5 7.5t-2.5 9.5q0 3 0.5 5.5t2 5t3.5 4.5l4 2q2 2 4.5 2.5t5.5 0.5h333q8 0 14 -6t6 -14q0 -4 -1.5 -7.5
t-4 -6t-6.5 -4.5t-8 -2z" />
    <glyph glyph-name="uniE657" unicode="&#xe657;" 
d="M960 299q0 13 -12 19l-132 65l132 64q12 6 12 19t-12 19l-427 208q-5 2 -9 2l-8 -2h-1l-426 -208q-6 -3 -9 -8t-3 -11q0 -13 12 -19h-1l133 -64l-133 -65h1q-6 -3 -9 -8t-3 -11q0 -13 12 -18h-1l133 -65l-133 -65h1q-3 -1 -5 -3t-3.5 -4t-2.5 -5t-1 -6q0 -13 12 -19h-1
l428 -208q2 -1 4 -1.5t4 -0.5q4 0 9 2l427 208q12 6 12 19q0 6 -3.5 11t-8.5 7l-132 65l132 65q3 1 6 4t4.5 6.5t1.5 7.5zM132 466l380 185l380 -185l-380 -185zM892 133l-380 -186l-380 186l124 60l248 -121q4 -2 8 -2t9 2l247 121l124 -60v0zM512 114l-380 185l124 61
l248 -121q4 -2 8 -2t9 2l247 121l124 -61zM512 114z" />
    <glyph glyph-name="uniE658" unicode="&#xe658;" 
d="M992 561l-375 -375l-177 177l407 407q-68 60 -154 93t-181 33q-139 0 -257 -68.5t-186.5 -186.5t-68.5 -257t68.5 -257t186.5 -186.5t257 -68.5t257 68.5t186.5 186.5t68.5 257q0 90 -32 177zM342 89l66 242l177 -177z" />
    <glyph glyph-name="uniE659" unicode="&#xe659;" 
d="M512 832q-91 0 -174 -35.5t-143 -95.5t-95.5 -143t-35.5 -174t35.5 -174t95.5 -143t143 -95.5t174 -35.5t174 35.5t143 95.5t95.5 143t35.5 174t-35.5 174t-95.5 143t-143 95.5t-174 35.5zM765 404l-96 -87q-10 -10 -8 -24l23 -139q1 -6 0.5 -10.5t-2.5 -8.5t-6 -7
q-8 -6 -17 -6q-2 0 -4.5 0.5t-4.5 1.5l-4 2l-122 69q-12 7 -24 0l-116 -69q-16 -9 -30 2q-3 2 -5 4t-4 4.5t-3 5t-1.5 6t-0.5 6.5l28 142q1 7 -1 13.5t-6 10.5l-102 84q-12 13 -6.5 30.5t22.5 20.5l132 24q13 2 19 15l61 135q8 16 25 16q8 0 15 -4.5t10 -11.5l59 -135
q3 -6 8 -10t11 -5l135 -24q8 -2 14 -7t8.5 -13t0.5 -16.5t-8 -14.5z" />
    <glyph glyph-name="uniE65A" unicode="&#xe65a;" 
d="M489 868v-726q0 -11 6.5 -17t16.5 -6q3 0 6.5 0.5t6 2t4.5 3.5t3.5 4.5t2 6t0.5 6.5v726q0 11 -6.5 17t-16.5 6t-16.5 -6t-6.5 -17zM261 330l242 -242l260 242q7 7 7 16.5t-7 16.5q-3 3 -7.5 5t-8.5 2t-8.5 -2t-7.5 -5l-228 -210l-210 210q-7 7 -16 7t-16 -7t-7 -16.5
t7 -16.5v0zM763 756h-135v-46h135q60 0 100 -40t40 -100v-512q0 -59 -40 -99t-100 -40h-512q-59 0 -99 40t-40 99v512q0 39 18 71t50 50.5t71 18.5h149v46h-149q-76 0 -131 -54.5t-55 -131.5v-512q0 -50 25 -93t68 -68t93 -25h512q77 0 132 54.5t55 131.5v512
q0 77 -55 131.5t-132 54.5z" />
    <glyph glyph-name="uniE65B" unicode="&#xe65b;" 
d="M512 384zM0 384q0 139 68.5 257t186.5 186.5t257 68.5t257 -68.5t186.5 -186.5t68.5 -257t-68.5 -257t-186.5 -186.5t-257 -68.5t-257 68.5t-186.5 186.5t-68.5 257zM684 471h-21h-27h-20h-3q-9 0 -17 5t-12.5 12.5t-4.5 16.5l1 16q0 14 -2 34t-6 34l-1 6q-1 5 -3.5 9.5
t-5.5 8t-6.5 6.5t-8 5t-9 3.5t-9.5 1.5q-13 0 -25 -10t-14 -24l-4 -21q-1 -6 -3 -12.5t-4.5 -13t-5.5 -13t-6.5 -12.5t-7.5 -10l-14 -19q-8 -11 -24.5 -19t-30.5 -8h-83q-7 0 -13 -3t-11 -7.5t-7.5 -10.5t-2.5 -13v-220q0 -7 2.5 -13t7.5 -11t11 -7.5t13 -2.5h398
q14 0 25.5 10t14.5 24l35 225q2 14 -6.5 23.5t-22.5 9.5h-67zM356 475h34v-302h-34v302z" />
    <glyph glyph-name="uniE65C" unicode="&#xe65c;" horiz-adv-x="1031" 
d="M506 346h12l506 332v13h-1024v-13zM538 301q-5 -4 -11.5 -5.5t-14.5 -1.5q-13 0 -19 7l-493 320v-621q0 -13 6 -24.5t18 -19t27 -7.5h928q21 0 36 14t15 37v621z" />
    <glyph glyph-name="uniE65D" unicode="&#xe65d;" 
d="M408 807h-245q-21 0 -38.5 -10t-27.5 -27.5t-10 -37.5v-245q0 -32 22.5 -54t53.5 -22h245q31 0 53 22t22 54v245q0 31 -22 53t-53 22zM446 487q0 -11 -5 -19.5t-14 -13.5t-19 -5h-245q-5 0 -10 1.5t-9 3.5t-7.5 5.5t-6 8t-4 9t-1.5 10.5v245q0 10 5 19t13.5 14t19.5 5
h245q16 0 27 -11t11 -27v-245zM861 807h-246q-12 0 -23.5 -3.5t-20.5 -10.5t-16 -16.5t-11 -21t-4 -23.5v-245q0 -21 10 -38.5t27.5 -27.5t37.5 -10h246q31 0 53 22t22 54v245q0 31 -22 53t-53 22zM898 487q0 -11 -5 -19.5t-13.5 -13.5t-18.5 -5h-246q-5 0 -10 1.5t-9 3.5
t-7.5 5.5t-6 8t-3.5 9t-1 10.5v245q0 10 5 19t13.5 14t18.5 5h246q5 0 9.5 -1.5t9 -4t8 -6t6 -7.5t3.5 -9t1 -10v-245zM408 355h-245q-16 0 -30 -6t-24 -16.5t-16 -24t-6 -29.5v-245q0 -31 22.5 -53t53.5 -22h245q31 0 53 22t22 53v245q0 31 -22 53.5t-53 22.5zM446 34
q0 -16 -11 -27t-27 -11h-245q-16 0 -27 11t-11 27v245q0 16 11 27t27 11h245q16 0 27 -11t11 -27v-245zM861 355h-246q-31 0 -53 -22.5t-22 -53.5v-245q0 -31 22 -53t53 -22h246q31 0 53 22t22 53v245q0 31 -22 53.5t-53 22.5zM898 34q0 -16 -11 -27t-26 -11h-246
q-10 0 -18.5 5t-13.5 14t-5 19v245q0 16 11 27t26 11h246q7 0 14 -3t12 -8t8 -12t3 -15v-245z" />
    <glyph glyph-name="uniE65E" unicode="&#xe65e;" 
d="M261 -53v167q-25 19 -46 41.5t-37 47t-27 51.5t-16.5 55.5t-5.5 57.5q0 69 30 131q29 60 82 107q27 23 57.5 41t64.5 31q36 13 73 19.5t76 6.5q26 0 51 -3t49.5 -9t48.5 -14q17 -7 33 -14.5t31.5 -16.5t29.5 -19.5t28 -21.5q26 -23 46.5 -50t35.5 -57q30 -62 30 -131
q0 -34 -7.5 -67t-22.5 -64q-29 -60 -82 -106q-27 -23 -57.5 -41t-64.5 -31q-24 -9 -48.5 -14.5t-49.5 -8.5t-51 -3h-14zM512 651q-136 0 -231 -83q-95 -84 -95 -201q0 -42 14 -82.5t41 -75.5t66 -62l11 -8v-116l170 61h24q136 0 231 83t95 200q0 38 -11 74t-32 68t-52 59
q-95 83 -231 83zM512 651zM694 401h-342q-7 0 -13.5 3t-10.5 9t-4 13q0 11 8.5 18.5t19.5 7.5h342q12 0 20.5 -7.5t8.5 -18.5q0 -7 -4 -13t-10.5 -9t-14.5 -3zM694 401zM603 266h-251q-7 0 -13.5 3.5t-10.5 9.5t-4 13q0 11 8.5 18.5t19.5 7.5h251q12 0 20.5 -7.5t8.5 -18.5
t-8.5 -18.5t-20.5 -7.5zM603 266z" />
    <glyph glyph-name="uniE65F" unicode="&#xe65f;" 
d="M860 667h-665q-18 0 -31 -13t-13 -31v-444q0 -18 13 -31t31 -13h665q19 0 32 13t13 31v444q0 18 -13 31t-32 13zM860 201l-206 217l206 178v-395zM536 339h1q2 -1 4 -2.5t4 -2t5 -0.5q2 0 4.5 0.5t5 2t4.5 3.5l57 48q83 -93 197 -209h-588q35 32 69.5 64t81.5 76t81 76z
M823 623l-274 -238l-311 238h585zM426 423l-231 -215v392z" />
    <glyph glyph-name="uniE660" unicode="&#xe660;" 
d="M527 849q-122 0 -225.5 -53.5t-164 -145.5t-60.5 -201q0 -96 45 -179t126 -138v-180l170 109q52 -11 106 -11q122 0 226 53.5t164.5 145.5t60.5 200.5t-60 200.5t-163 145.5t-225 53.5zM527 100q-65 0 -122 15l-112 -70v113q0 3 -15 13q-48 32 -82.5 75t-53 95t-18.5 108
q0 95 54 175.5t146.5 127.5t201 47t200.5 -47t145.5 -127.5t53.5 -175.5t-53 -175.5t-145 -127t-200 -46.5zM731 575h-400q-5 0 -9.5 -2t-8 -5.5t-5.5 -8t-2 -9.5q0 -7 3.5 -13t9 -9.5t12.5 -3.5h400q4 0 7.5 1.5t6.5 4t5.5 5.5t4 7t1.5 8q-7 20 -25 25zM695 378q0 2 -1 4.5
t-2 4.5t-2.5 4t-3 3.5t-4 2.5t-5 1.5t-4.5 0.5h-306q-9 0 -15 -6t-6 -15v-7q0 -4 1.5 -8t4.5 -7t7 -5t8 -2h306q6 0 11 3t8 8t3 11v7z" />
    <glyph glyph-name="uniE661" unicode="&#xe661;" 
d="M186 58h326v-46h-326v46zM838 58v-46h93v884h-698v-93h46v46h605v-791h-46zM186 198h512v-47h-512v47zM93 747v-865q0 -10 10 -10h679q9 0 9 10v865q0 9 -9 9h-679q-9 -1 -10 -9zM140 710h605v-791h-605v791zM186 617h512v-47h-512v47zM186 477h512v-46h-512v46zM186 337
h512v-46h-512v46z" />
    <glyph glyph-name="uniE662" unicode="&#xe662;" 
d="M279 337h466v-46h-466v46zM279 198h466v-47h-466v47zM279 756h280v-46h-280v46zM279 58h466v-46h-466v46zM279 477h466v-46h-466v46zM862 -128h1t3.5 0.5t4.5 1.5t4.5 2.5t4.5 4t3 6t1 8.5v796l-203 205h-519q-22 0 -22 -23v-978q0 -10 5.5 -16t11.5 -6l5 -1h700z
M186 849h466v-139q0 -10 2.5 -17.5t6.5 -12.5t9 -8.5t10 -5t9 -2.5t7 -1h2h140v-744h-652v930zM279 617h466v-47h-466v47z" />
    <glyph glyph-name="uniE663" unicode="&#xe663;" 
d="M905 -128q3 0 5.5 1.5t4 4t1.5 5.5v1002q0 3 -1.5 5.5t-4 4t-5.5 1.5h-786q-2 0 -4 -1t-3.5 -2.5t-2.5 -3.5t-1 -4v-1002q0 -3 1.5 -5.5t4 -4t5.5 -1.5h786zM216 734h592v-54h-592v54zM216 573h592v-54h-592v54zM216 411h592v-54h-592v54zM216 249h592v-54h-592v54z
M216 88h377v-54h-377v54z" />
    <glyph glyph-name="uniE664" unicode="&#xe664;" 
d="M169 659v-710h686v710h-686zM194 635h637v-661h-637v661zM642 270l34 34l-225 225l-35 -34l191 -191l-191 -190l35 -35z" />
    <glyph glyph-name="uniE665" unicode="&#xe665;" 
d="M524 270q1 0 1 0.5t1 0.5q12 12 12 29.5t-12 29.5l-389 389q-6 6 -14 9t-16 3t-15.5 -3t-13.5 -9q-13 -12 -13 -29.5t13 -29.5l359 -360l-356 -355q-13 -14 -14.5 -32.5t11.5 -30.5q6 -6 14 -9t16.5 -2.5t17 4.5t14.5 10l382 382l2 1v2zM944 330l-389 389q-6 6 -14 9
t-16 3t-16 -3t-14 -9q-12 -12 -12 -29.5t12 -29.5l360 -360l-356 -355q-14 -14 -15 -32.5t11 -30.5q6 -6 14.5 -9t16.5 -2.5t16.5 4.5t15.5 10l382 382l2 2l2 2q12 12 12 29.5t-12 29.5z" />
    <glyph glyph-name="uniE666" unicode="&#xe666;" 
d="M284 719q-5 -5 -7.5 -11.5t-2.5 -13.5t2.5 -13.5t8.5 -12.5l372 -368l-371 -374q-7 -7 -9.5 -16.5t0 -18.5t9.5 -16q11 -11 26 -11t25 11l394 397q0 1 1 2l1 1q5 5 7.5 11.5t2.5 13.5q0 15 -10 26l-398 393q-10 11 -25 11t-26 -11zM284 719z" />
    <glyph glyph-name="uniE667" unicode="&#xe667;" 
d="M411 -128q0 6 2 11.5t6 9.5l384 390l-384 393q-8 9 -8 21t9 21q5 6 13 8t15.5 -0.5t13.5 -8.5l404 -413q4 -5 6 -10.5t2 -11t-2 -11t-6 -9.5l-404 -410q-9 -9 -21.5 -9t-20.5 8q-5 4 -7 10t-2 11zM229 591q0 8 6 14t14.5 6t13.5 -6l301 -308q4 -4 5.5 -9t0 -10t-5.5 -9
l-300 -306q-3 -4 -8.5 -5.5t-10.5 0t-9 5t-5 9t0 10.5t5 9l286 292l-287 294q-3 3 -4.5 6.5t-1.5 7.5z" />
    <glyph glyph-name="uniE668" unicode="&#xe668;" 
d="M738 323l-407 407q-9 9 -22.5 9t-23 -9t-9.5 -22.5t10 -22.5l384 -385l-384 -385q-10 -9 -10 -22.5t10 -22.5q6 -6 14 -8t16.5 0t14.5 8l407 407q10 10 10 23t-10 23z" />
    <glyph glyph-name="uniE669" unicode="&#xe669;" horiz-adv-x="1035" 
d="M531 239q24 24 24 59.5t-24 59.5q-62 62 -394 393q-19 20 -45 24q-1 0 -3 0.5t-4 0.5t-3 1h-4q-11 -2 -12 -2q-25 -5 -41 -20t-23 -40q-2 -8 -2 -18t1 -17q2 -8 5.5 -16t9.5 -15t11 -12q142 -143 333 -334l5 -4l-2 -2l-3 -3l-78 -78l-245 -245l-5 -5q-6 -5 -7 -6.5t-5 -6
t-5.5 -6.5t-4.5 -6.5t-4.5 -7.5t-2.5 -7.5t-2 -8.5q-2 -20 0 -33q1 -5 6 -15q18 -39 59 -46.5t71 23.5q55 54 189 188zM78 777l-12 -2q1 0 12 2zM551 776q-28 -3 -49 -25t-22 -51q-1 -18 5.5 -33.5t20.5 -29.5l176 -176l158 -158q1 -1 3 -2t3 -2q-1 -1 -2.5 -2t-2.5 -2
l-1 -1q-12 -11 -23 -22t-23.5 -24t-21.5 -21.5t-24 -24t-21.5 -21.5t-24.5 -23l-21 -22q-4 -4 -23.5 -24t-22.5 -22q-13 -14 -32 -33l-33 -33l-32 -32l-33 -33q-30 -30 -24 -70q3 -23 16.5 -39t35.5 -24q44 -16 80 16l3 2q1 2 3 3q31 32 119 121l150 150q62 61 121 119
q25 25 25.5 61t-24.5 60q-66 66 -393 394q-19 19 -45 23q-1 0 -11 2h-3q-6 -1 -7 -1zM551 776z" />
    <glyph glyph-name="uniE66A" unicode="&#xe66a;" 
d="M490 384q2 17 -10 29l-328 328q-11 11 -26 11t-26 -11q-6 -6 -8.5 -12.5t-2.5 -13.5t2.5 -14t8.5 -13l304 -304l-304 -304q-11 -11 -11 -26.5t11 -26.5q7 -7 16.5 -9.5t19 0t16.5 9.5l328 328q3 3 5 6.5t3.5 7t2 7.5t-0.5 8zM925 413l-402 402q-11 11 -26.5 11t-26.5 -11
q-4 -4 -6.5 -9.5t-3.5 -11t0 -11.5t3.5 -11t6.5 -10l379 -378l-379 -378q-7 -8 -9.5 -17.5t0 -19t9.5 -16.5q11 -11 26.5 -11t26.5 11l402 402q5 6 8 13.5t2 15.5q1 17 -10 29z" />
    <glyph glyph-name="uniE66B" unicode="&#xe66b;" 
d="M462 828q-18 0 -30.5 -12.5t-12.5 -30.5q0 -16 10 -28v-1l2 -2l359 -358q11 -12 0 -23l-361 -361h1q-6 -6 -8.5 -13.5t-2.5 -15.5q0 -18 12.5 -30.5t30.5 -12.5q23 0 36 20l1 1l3 1l411 411q11 11 0 23l-411 411q-1 0 -2.5 0.5t-2.5 0.5q-6 9 -15 14.5t-20 5.5zM150 828
q-12 0 -22 -6t-16 -16t-6 -21q0 -6 1.5 -11t4 -9t5.5 -8v-1l2 -2l359 -358q11 -12 0 -23l-361 -361h1q-6 -6 -9 -13.5t-3 -15.5q0 -18 13 -30.5t31 -12.5q23 0 36 20q0 1 1.5 1t2.5 1l411 411q11 11 0 23l-411 411q-1 0 -2.5 0.5t-2.5 0.5q-4 6 -9 10.5t-12 7t-14 2.5z" />
    <glyph glyph-name="uniE66C" unicode="&#xe66c;" 
d="M448 806q-12 18 -12 41.5t12 36.5q19 12 42.5 12t35.5 -12l457 -481q8 0 8 -17q0 -6 -1 -8t-7 -8l-457 -482q-20 -17 -42 -15t-36 15q-12 19 -12 42.5t12 36.5l403 419zM448 806zM588 370l-456 -482q-20 -17 -42.5 -15t-36.5 15q-12 19 -12 42.5t12 36.5l403 419
l-411 420q-12 18 -12 41.5t12 36.5q19 12 42.5 12t35.5 -12l465 -481q8 0 8 -17v-8q0 -3 -2 -5.5t-6 -2.5v0zM588 370z" />
    <glyph glyph-name="uniE66D" unicode="&#xe66d;" 
d="M358 210l64 -63l255 254l-255 255l-64 -64l191 -191z" />
    <glyph glyph-name="uniE66E" unicode="&#xe66e;" 
d="M533 164v0l205 203q7 7 7 17.5t-7 17.5t-17.5 7t-17.5 -7l-187 -186l-186 188q-5 4 -11.5 6t-12.5 0t-11 -6q-3 -3 -4.5 -5.5t-2.5 -6t-1 -6.5t1 -6t2.5 -6t4.5 -5l202 -205h1q3 -4 8 -6t9.5 -2t9 2t8.5 6z" />
    <glyph glyph-name="uniE66F" unicode="&#xe66f;" 
d="M877 493q-9 9 -22 9t-22 -9l-319 -322l-323 320q-6 6 -14 8.5t-16 0t-14 -8.5t-8.5 -14t0 -16t8.5 -14l344 -341h1v-1h1q3 -3 6.5 -5t7.5 -3t8 -1t7.5 1t7.5 3t7 5l340 344q6 6 8.5 14t0 16t-8.5 14zM877 493z" />
    <glyph glyph-name="uniE670" unicode="&#xe670;" 
d="M533 248v0l205 203q7 7 7 17.5t-7 17.5t-17.5 7t-17.5 -7l-187 -186l-186 188q-5 4 -11.5 6t-12.5 0t-11 -6q-8 -7 -8 -17.5t8 -17.5l202 -205h1q3 -4 8 -6t9 -2q11 0 18 8z" />
    <glyph glyph-name="uniE671" unicode="&#xe671;" 
d="M545 256l331 329l86 1l-418 -404h-55l-427 404h84l344 -329z" />
    <glyph glyph-name="uniE672" unicode="&#xe672;" 
d="M256 620l510 -320l-510 -321v641z" />
    <glyph glyph-name="uniE673" unicode="&#xe673;" 
d="M697 289l-206 225h-117l206 -225l-206 -206h117zM697 289z" />
    <glyph glyph-name="uniE674" unicode="&#xe674;" 
d="M374 289l206 -206h117l-206 206l206 225h-117zM374 289z" />
    <glyph glyph-name="uniE675" unicode="&#xe675;" 
d="M508 -147q-92 0 -175.5 35.5t-144 95.5t-96 142.5t-35.5 173.5q0 73 22.5 141.5t64.5 123t97.5 96t124 64t142.5 22.5q92 0 175.5 -35t143.5 -95t96 -143t36 -174q0 -61 -16.5 -119t-45.5 -107t-70.5 -90t-91 -70t-108 -45t-119.5 -16zM508 710q-67 0 -130.5 -20.5
t-114 -58.5t-89 -88.5t-59 -113t-20.5 -129.5q0 -111 55 -205.5t150.5 -149.5t207.5 -55q84 0 160.5 32.5t132 87.5t88 131t32.5 159q0 67 -20.5 129.5t-59 113t-89.5 88.5t-114 58.5t-130 20.5zM708 280l-199 -197q-8 -8 -20 -8t-20 8t-8 19.5t8 19.5l152 151h-308
q-12 0 -20.5 8t-8.5 19.5t8.5 20t20.5 8.5h307l-151 149q-8 8 -8 19.5t8 20.5q2 2 4.5 3.5t5 2.5t5 1.5t5.5 0.5t5.5 -0.5t5 -1.5t5 -2.5t4.5 -3.5l197 -196q2 -1 3 -2.5t2 -2.5t2 -3t2 -3v-1q2 -6 2 -9h-1q0 -12 -8 -21z" />
    <glyph glyph-name="uniE676" unicode="&#xe676;" 
d="M655 301h-1l-203 204q-8 7 -18 7t-17 -7t-7 -17.5t7 -17.5l186 -187l-186 -186q-7 -8 -7 -18t7 -17q8 -7 17 -8q3 0 6.5 1t6 2.5t5.5 4.5l203 203l1 1q7 7 7 17.5t-7 17.5z" />
    <glyph glyph-name="uniE677" unicode="&#xe677;" 
d="M380 300l258 258l59 -62l-198 -198l206 -193l-63 -64z" />
    <glyph glyph-name="uniE678" unicode="&#xe678;" 
d="M512 658q15 0 20 -12l95 -192q9 -18 29 -21l217 -31q14 -2 18 -14q1 -2 1 -4v-5q0 -2 -1 -4l-2 -4q-1 -2 -3 -3l-159 -156q-14 -13 -11 -32l37 -216q2 -13 -9 -20q-6 -4 -13 -4q-6 0 -11 3l-190 100l-6 2q-3 1 -6 1.5t-6 0.5t-6 -0.5t-6 -1.5l-6 -2l-190 -100
q-1 -1 -3 -1l-4 -2h-4q-4 0 -7 1t-6 3q-11 7 -9 20l37 216q3 18 -11 32l-159 156q-4 4 -5.5 9.5t0.5 10.5t6.5 9t11.5 5l217 31q20 3 29 21l95 192q2 6 7.5 9t12.5 3zM512 695q-38 0 -55 -33l-94 -192l-218 -31q-17 -3 -30 -13.5t-18 -25.5q-4 -11 -3.5 -21t5 -20t12.5 -17
l159 -156l-37 -216q-6 -36 25 -57q16 -10 35 -10q5 0 10 0.5t10 2.5t9 4l190 100l190 -100q14 -7 29 -7q9 0 18 2.5t17 7.5q31 21 25 57l-37 216l159 156q26 25 14 58t-48 39l-218 31l-94 192q-3 6 -7.5 11.5t-9.5 9.5t-11.5 6.5t-13 4t-13.5 1.5v0zM512 695z" />
    <glyph glyph-name="uniE679" unicode="&#xe679;" 
d="M416 301v0l204 204q3 3 8 5t9.5 2t9 -2t8.5 -5q7 -7 7 -17.5t-7 -17.5l-187 -187l187 -186q7 -8 7 -18t-7 -17q-8 -7 -18 -8q-4 0 -9 2t-8 6l-204 203v1q-7 7 -7 17.5t7 17.5z" />
    <glyph glyph-name="uniE67A" unicode="&#xe67a;" 
d="M338 -66v68l289 290l-289 290v68l358 -358z" />
    <glyph glyph-name="uniE67B" unicode="&#xe67b;" 
d="M955 409q-4 11 -11.5 20t-17.5 15t-22 8l-232 34l-101 209q-8 17 -24 27t-34.5 10t-34.5 -10t-24 -27l-101 -209l-232 -34q-18 -3 -31.5 -14.5t-19.5 -28.5q-12 -36 15 -63l170 -170l-39 -236q-7 -38 26 -61q17 -12 37 -12q17 0 31 8l202 109l203 -109q14 -8 31 -8
q10 0 19.5 3t17.5 9q33 23 26 61l-39 236l170 170q27 27 15 63zM735 221l-28 -28l7 -40l39 -235l-204 110l-37 20l-36 -20l-204 -110l39 235l7 40l-28 28l-169 168l231 34l41 7l18 37l101 211l102 -211l18 -37l41 -7l231 -34zM735 221z" />
    <glyph glyph-name="uniE67C" unicode="&#xe67c;" 
d="M583 498q-6 -6 -6 -14.5t6 -14.5l153 -158h-526q-6 0 -10.5 -3t-7 -7.5t-2.5 -10.5q0 -8 6 -14t14 -6h526l-153 -159q-6 -6 -6 -14.5t6 -14t15 -5.5q4 0 7.5 1.5t6.5 4.5l187 193q3 3 4.5 7t1.5 7.5t-1.5 7.5t-4.5 7l-187 193q-6 6 -14.5 6t-14.5 -6zM915 460
q-11 28 -26 54t-33 50t-40 45q-65 65 -149 99q-41 17 -83.5 25t-86.5 8q-88 0 -169 -33q-84 -34 -149 -99t-99 -149q-9 -20 -15 -41t-10 -42t-6 -43t-2 -44q0 -88 33 -169q34 -84 99 -149t149 -99q81 -33 169.5 -33t169.5 33q84 34 149 99q32 32 57 69.5t42 79.5
q16 40 24.5 83t8.5 86q0 89 -33 170zM787 1q-12 -12 -24 -22.5t-25 -20t-27 -18t-28 -15.5t-29 -13t-30 -11t-30.5 -9t-31.5 -6.5t-32 -3.5t-33 -1q-82 0 -156.5 31t-132.5 89q-39 38 -66 84.5t-40.5 98.5t-13.5 106.5t13.5 106.5t40.5 98.5t66 84.5q58 58 132.5 89
t156.5 31q55 0 107 -14t98.5 -40.5t84.5 -65.5q58 -58 89 -132.5t31 -157t-31 -157t-89 -132.5z" />
    <glyph glyph-name="uniE67D" unicode="&#xe67d;" 
d="M414 556l-60 -60l197 -196l-197 -197l60 -59l256 256z" />
    <glyph glyph-name="uniE67E" unicode="&#xe67e;" 
d="M670 496l-60 60l-256 -256l256 -256l60 59l-196 197z" />
    <glyph glyph-name="uniE67F" unicode="&#xe67f;" 
d="M756 -111l-37 -36l-451 447l451 447l37 -36l-414 -411zM756 -111z" />
    <glyph glyph-name="uniE680" unicode="&#xe680;" 
d="M695 -32l-407 417l407 415l38 -37l-371 -378l371 -380z" />
    <glyph glyph-name="uniE681" unicode="&#xe681;" 
d="M297 60l357 325l-357 325q-11 10 -11.5 24t8.5 24q6 7 15 9.5t18 0.5t16 -8l379 -345q2 -2 4 -3.5t4 -3.5q9 -9 9 -23q0 -13 -9 -23l-8 -6l-379 -345q-11 -10 -25 -9.5t-23.5 10.5t-9 24t11.5 24zM297 60z" />
    <glyph glyph-name="uniE682" unicode="&#xe682;" 
d="M376 174q-3 -3 -4.5 -6.5t-2.5 -7t-1 -7t1 -7t2.5 -7t4.5 -6.5q4 -4 9.5 -6.5t11 -2.5t11 2.5t9.5 6.5l231 230q8 9 8 21t-8 21l-231 230q-8 9 -20 9t-21 -9q-8 -8 -8 -20t8 -21l210 -210z" />
    <glyph glyph-name="uniE683" unicode="&#xe683;" 
d="M436 353l-31 31l31 32l232 233q3 2 4.5 5.5t2 7t0 6.5t-2 6.5t-4.5 5.5q-6 7 -15.5 7t-15.5 -7l-279 -280q-3 -3 -5 -7.5t-2 -8.5t2 -8.5t5 -7.5l279 -280q6 -7 15.5 -7t16 6.5t6.5 16t-7 15.5z" />
    <glyph glyph-name="uniE684" unicode="&#xe684;" 
d="M640 545l-47 47l-162 -161l-47 -47l209 -208l47 47l-162 161z" />
    <glyph glyph-name="uniE685" unicode="&#xe685;" 
d="M590 385q-6 5 -6 6q-164 163 -264 263q-6 7 -8.5 13t-1.5 11.5t6 10.5q22 22 36 35q3 3 6 5t6.5 2.5t6.5 -0.5t6.5 -2.5t6.5 -4.5q10 -11 70 -70l129 -129l122 -122q18 -19 -1 -38l-319 -319q-18 -18 -36 0l-31 31q-17 18 1 36l83 83l86 86l100 100z" />
    <glyph glyph-name="uniE686" unicode="&#xe686;" 
d="M760 699l-48 49l-448 -448l448 -448l48 49l-399 399zM760 699z" />
    <glyph glyph-name="uniE687" unicode="&#xe687;" 
d="M338 292l358 358v-68l-290 -290l290 -290v-68z" />
    <glyph glyph-name="uniE688" unicode="&#xe688;" 
d="M268 301l448 448l40 -39l-449 -449zM307 340l449 -449l-40 -39l-448 449z" />
    <glyph glyph-name="uniE689" unicode="&#xe689;" 
d="M228 300q0 3 0.5 5.5t1.5 5t2 4.5t3 4l422 422q8 7 18.5 7t18 -7.5t7.5 -18t-7 -18.5l-404 -404l404 -404q7 -7 7 -17.5t-7 -18.5q-5 -5 -12 -6.5t-13.5 0t-11.5 6.5l-422 422q-7 8 -7 18z" />
    <glyph glyph-name="uniE68A" unicode="&#xe68a;" 
d="M729 -140q-6 0 -12 2.5t-10 6.5l-415 415q-4 5 -6.5 10.5t-2.5 11.5t2.5 11.5t6.5 10.5l415 415q6 6 14 8t16 0t14 -8q9 -9 9 -22t-9 -22l-393 -393l393 -393q9 -9 9 -22t-9 -22t-22 -9zM729 -140z" />
    <glyph glyph-name="uniE68B" unicode="&#xe68b;" 
d="M287 393l380 380l52 -53l-328 -328l328 -328l-52 -53l-380 380l2 1z" />
    <glyph glyph-name="uniE68C" unicode="&#xe68c;" 
d="M742 -53q9 9 9.5 21.5t-7.5 21.5l-376 376q-12 12 -12 18t12 18l376 376q6 6 7.5 13.5t-1 15.5t-8.5 14q-5 5 -11 7.5t-11.5 3t-11.5 -2t-10 -6.5l-418 -418l-2 -3q-2 -1 -2 -2l-2 -4v-2q-1 -2 -1.5 -4t-0.5 -3v-6q1 -11 8 -18l418 -418q8 -9 21.5 -8.5t22.5 10.5v0z
M742 -53z" />
    <glyph glyph-name="uniE68D" unicode="&#xe68d;" 
d="M896 -68h-768v96q0 47 170 109q35 13 57.5 24.5t36.5 25.5t19.5 29.5t5.5 37.5q0 12 -10 24q-24 28 -32 70q-1 4 -6 7q-14 6 -21.5 18.5t-9.5 42.5q0 10 2 18t5 13t6 9q-7 39 -9 63q-1 14 2 30.5t11.5 35t22.5 32.5q46 51 134 51t134 -50q11 -12 19 -26t11.5 -27t5 -24.5
t0.5 -21.5q-1 -7 -1.5 -14.5t-1.5 -14t-2 -13.5t-2 -12t-2 -9q13 -14 13 -39q-2 -31 -9.5 -43.5t-21.5 -18.5q-5 -3 -6 -7q-7 -42 -31 -70q-11 -12 -11 -24q0 -43 25 -67.5t94 -49.5q170 -62 170 -109v-96zM155 -42h714v70q0 5 -10.5 15t-47.5 29t-94 40q-18 7 -32 12.5
t-27.5 12.5t-23.5 14t-19 15t-15.5 17.5t-11 20t-6.5 23t-2 27.5q0 22 18 42q19 22 25 57q1 6 3.5 10.5t6 7.5t5.5 4.5t6 3.5q3 2 5 3t4.5 5t4 11.5t2.5 19.5q0 16 -8 21l-9 4l3 10v2q7 41 9 66q1 9 -0.5 21t-9 28t-19.5 30q-19 20 -47.5 31t-66.5 11t-67 -11t-48 -32
q-17 -19 -23.5 -40.5t-4.5 -37.5q1 -13 3.5 -30.5t4 -26.5t2.5 -11l1 -10l-9 -5v0q-7 -6 -7 -21q2 -15 4.5 -23.5t5 -10.5t6.5 -4q17 -8 21 -26q2 -13 5 -22.5t7 -16t6.5 -10t6.5 -8.5q18 -20 18 -42q0 -29 -8.5 -50t-27 -37.5t-42 -29t-59.5 -25.5q-57 -20 -94 -39.5
t-47.5 -29.5t-10.5 -15v-70z" />
    <glyph glyph-name="uniE68E" unicode="&#xe68e;" 
d="M813 87q-4 2 -51.5 26.5t-87.5 38t-91 19.5q10 8 18 18t16.5 28t13 28.5t16 40t15.5 40.5v2l1 1q12 -2 18 2q10 6 16 32t6 46q0 15 -4 22.5t-8 7.5l-4 1h-1v2v6q0 8 1 25.5t1.5 31t-0.5 29t-4 25.5q-3 12 -6.5 28t-5.5 22.5t-7 15.5t-13 18q-29 31 -88 51t-121 7
q-18 -4 -27 -13t-9.5 -17t-2.5 -14.5t-7 -6.5q-10 1 -18 -5t-13.5 -13.5t-11.5 -21.5t-9 -24.5t-8 -26.5q-3 -13 -3.5 -32t0.5 -45t1 -34q0 -2 1 -5v-3h-2h-2q-1 0 -2 -0.5t-2.5 -1.5t-3 -2.5t-3 -3.5t-2 -5.5t-1 -8t-0.5 -9.5q0 -20 6 -46t16 -32q6 -4 18 -2q1 0 2 -1v-2
q5 -13 15.5 -41.5t15.5 -39.5t13.5 -28.5t16.5 -28t18 -17.5q-40 -5 -79 -17.5t-59 -21.5t-52 -26q-9 -4 -13.5 -6.5t-11.5 -5.5l-13 -7q-91 -41 -107 -92q-1 -5 -1 -9v-89h819v89q0 24 -34 54q-29 27 -75 47z" />
    <glyph glyph-name="uniE68F" unicode="&#xe68f;" 
d="M427 385h170v-85h-170v85zM981 727h-42v-171h-256v171h-342v-171h-256v171h-42q-18 0 -30.5 -12.5t-12.5 -30.5v-853q0 -18 12.5 -30.5t30.5 -12.5h938q18 0 30.5 12.5t12.5 30.5v853q0 12 -5.5 21.5t-15.5 15.5t-22 6zM939 -127h-854v598h854v-598zM427 44h170v-85h-170
v85zM768 812h85v-171h-85v171zM171 44h170v-85h-170v85zM171 812h85v-171h-85v171zM683 385h170v-85h-170v85zM427 215h170v-86h-170v86zM171 215h170v-86h-170v86zM683 215h170v-86h-170v86zM683 44h170v-85h-170v85zM171 385h170v-85h-170v85z" />
    <glyph glyph-name="uniE690" unicode="&#xe690;" 
d="M656 486q-24 0 -41 -17t-17 -41.5t17 -42t41.5 -17.5t41.5 17.5t17 41.5q0 16 -7.5 29.5t-21.5 21.5t-30 8zM512 812q-139 0 -257 -68.5t-186.5 -186.5t-68.5 -257t68.5 -257t186.5 -186.5t257 -68.5t257 68.5t186.5 186.5t68.5 257t-68.5 257t-186.5 186.5t-257 68.5z
M818 265l-343 -343q-6 -6 -14 -9.5t-16 -3.5q-6 0 -11.5 1.5t-10.5 4.5t-9 7l-262 262q-7 7 -10 15t-3 16q0 18 13 31l343 343q6 7 16.5 10.5t17 4t17.5 0.5h10h224q22 0 37.5 -15.5t15.5 -37.5v-229q0 -42 -15 -57z" />
    <glyph glyph-name="uniE691" unicode="&#xe691;" 
d="M960 290v-224h-51q-12 32 -28 52q-13 19 -32 32t-45 22.5t-42 13.5t-47 10q-46 10 -64 17q-9 3 -17 7q29 32 47 74q4 11 7.5 21.5t6.5 21.5t4.5 22.5t2.5 22.5t1 22q0 114 -29 173q-10 20 -24.5 37t-34.5 29q11 40 38 61.5t74 21.5q31 0 53 -10t35 -26t21 -41.5
t10.5 -50.5t2.5 -59q0 -40 -16.5 -78.5t-43.5 -61.5q-5 -5 -5 -13q0 -12 1 -21.5t4 -13.5q10 -14 31 -24t42 -14t50.5 -10.5t47.5 -12.5zM140 117q11 15 27.5 28t30.5 20.5t37 14.5t36.5 9.5t38.5 8.5q14 2 23.5 4.5t21 5t20.5 5.5q10 4 16 7q-28 31 -47 74q-22 53 -23 108
q-1 68 9 116q7 33 19.5 58.5t31.5 45.5q6 6 13 11.5t15 10.5q-24 83 -111 83q-31 0 -54 -10.5t-36 -26.5t-20.5 -41.5t-10 -51t-1.5 -59.5q0 -20 4.5 -40t12 -38t18.5 -33.5t24 -27.5q3 -2 4.5 -5.5t1.5 -7.5q0 -12 -1 -21.5t-4 -13.5q-11 -14 -32 -23.5t-41.5 -13.5
t-50.5 -10.5t-48 -11.5v-226h51q10 29 25 51zM883 -107q0 -8 -5.5 -14t-13.5 -6h-703q-8 0 -13.5 6t-5.5 14q8 139 44 190q17 24 55 38t75.5 19.5t75 18t52.5 33.5q6 8 6 40q-1 8 -6 14q-30 26 -48 68.5t-18 86.5q-1 39 1.5 67.5t11 57t23 47t39.5 29.5t60 11q34 0 59 -11
t39 -29t22.5 -46.5t11 -57t2.5 -66.5q0 -15 -2 -30t-6 -29.5t-9.5 -28.5t-13 -26t-16 -23t-18.5 -20q-3 -3 -4.5 -6.5t-1.5 -7.5q-1 -31 5 -40q15 -21 52 -34t74 -18t75 -19.5t55 -37.5q38 -50 46 -190z" />
    <glyph glyph-name="uniE692" unicode="&#xe692;" 
d="M857 -43q0 1 -1 2v1q0 4 -1 7q-2 18 -6 36t-10 35t-14 33.5t-17 31.5t-20 29t-23 27t-25.5 24.5t-28 22t-30 19t-32.5 15.5q32 22 55.5 52.5t37 68.5t13.5 79q0 100 -71 170.5t-171 70.5q-28 0 -55 -6.5t-51 -18t-45 -28t-37.5 -37.5t-28.5 -45t-18 -51t-6 -55
q0 -62 28 -114.5t77 -85.5q-82 -35 -137.5 -107t-67.5 -162q-1 -3 -1.5 -5.5t-0.5 -5.5v-3v0v-1q0 -9 4.5 -17t12.5 -12.5t17 -4.5q15 0 25 10t10 24v1q12 99 85.5 167.5t173.5 73.5h15h4h4h3h4q100 -5 173.5 -73.5t85.5 -167.5h1v-1q0 -14 10 -24t24 -10t24.5 10t10.5 24v1
v0zM513.5 267q-71.5 0 -122 50.5t-50.5 122t50.5 122t122 50.5t122 -50.5t50.5 -122t-50.5 -122t-122 -50.5z" />
    <glyph glyph-name="uniE693" unicode="&#xe693;" 
d="M867 25q2 -5 3 -11t2.5 -13t2.5 -15q2 -25 2 -47q0 -24 -3.5 -45t-10.5 -33q-5 -7 -29 -15t-58 -15.5t-78 -14.5q-35 -5 -85 -11q-41 -6 -83 -9q-38 -3 -69 -3q-22 0 -48.5 2t-57.5 5q-64 7 -118 16q-59 9 -102 18q-43 10 -52 17q-12 8 -17 50q-6 41 5 106q6 37 30 57
q24 19 57 30q11 4 22.5 7.5t22.5 6.5t23 6q35 10 62 27q10 6 18.5 12.5t14.5 12.5q11 12 16 24q2 6 3 12.5t1 13.5v13q0 7 -1 15q-1 12 -5 21.5t-10 15.5q-15 14 -31 28q-9 7 -15 20q-5 11 -11 25q-2 8 -4.5 16t-5.5 16q-2 0 -4.5 1t-5 2.5t-4.5 3.5q-3 2 -6.5 5.5t-7 8.5
t-6.5 11.5t-5 14.5q-5 18 -3.5 31.5t5.5 23.5q2 6 5 11t7 10q-1 38 4 77q4 32 15 69q5 18 12.5 34.5t17.5 31.5q10 14 21 25t23 20q23 18 48 28t49 14l16 2q8 1 16 1.5t16 0.5q7 0 14 -0.5t14.5 -1.5t14 -2t13.5 -3q27 -7 50 -18q12 -6 22.5 -12t19.5 -13q6 -5 11 -9.5
t9.5 -9t8.5 -9.5q13 -16 22.5 -34t15.5 -37q4 -13 7.5 -25.5t6 -24.5t4.5 -24q6 -41 5 -81q7 -5 11 -12t7 -18q1 -6 1 -12.5t-1 -14.5q-3 -22 -9 -34q-7 -13 -15 -20q-10 -8 -19 -11q-4 -17 -9 -32q-7 -15 -12 -26q-6 -12 -14.5 -19.5t-17.5 -13.5q-8 -5 -14 -11t-10 -15
l-4 -10q-2 -5 -3 -11q-2 -14 -2 -31q1 -8 3 -16t6 -15q3 -8 9 -15.5t14 -14.5q16 -14 43 -26q13 -4 27 -8.5t29 -8.5q5 -2 11 -3.5t12 -3.5t11.5 -3.5t11.5 -3.5t11 -4q10 -4 18.5 -8t16.5 -9t15 -10q22 -17 31 -43zM478 -141q2 0 6 1.5t10 5.5q11 6 20 15q6 5 10 9.5t8 8.5
q8 10 8 15t-3 21q-7 32 -7 33q-6 25 -8 36q-2 6 -3 11t-2.5 10t-2.5 8q6 4 10 8.5t8 9.5q7 10 7 20q0 8 -6 16q-5 9 -12 15l-8 6q-4 3 -10 8h-50q-4 -2 -7 -4.5t-5.5 -5t-5.5 -4.5q-6 -6 -11 -14q-2 -4 -3.5 -8t-1.5 -8q0 -6 8 -17q4 -5 8.5 -9.5t10.5 -9.5l-4 -12
q-2 -6 -4 -14q-6 -17 -10 -36l-8 -36q-4 -16 -4 -24q0 -5 8 -14.5t18.5 -18.5t20.5 -15q2 -2 4.5 -3t4 -2t3.5 -1.5t3 -0.5z" />
    <glyph glyph-name="uniE694" unicode="&#xe694;" 
d="M512 659q-78 0 -149 -24t-122.5 -65.5t-82 -99t-30.5 -121.5q0 -34 9 -67.5t25 -63.5t38.5 -57.5t51 -50.5t61.5 -40l44 -114q15 -27 54 -5l116 59l22 12q145 13 245.5 108.5t100.5 218.5q0 64 -30.5 121.5t-82 99t-122 65.5t-148.5 24zM538 53l-130 -68q-15 -9 -18.5 -8
t-10.5 16l-36 99q-54 27 -95 67t-64.5 89.5t-23.5 100.5q0 56 28.5 107.5t76.5 89t112.5 60t134 22.5t134.5 -22.5t112.5 -60t76.5 -89t29 -107.5q-1 -106 -92 -193q-96 -92 -230 -103h-4zM507 348zM471 348q0 15 10.5 25.5t25.5 10.5q9 0 17.5 -5t13 -13.5t4.5 -18
t-4.5 -18t-13 -13t-17.5 -4.5q-15 0 -25.5 10.5t-10.5 25.5zM670 348zM634 348q0 9 5 17.5t13.5 13.5t17.5 5q15 0 25.5 -10.5t10.5 -25.5t-10.5 -25.5t-25.5 -10.5t-25.5 10.5t-10.5 25.5zM353 348zM317 348q0 15 10.5 25.5t25.5 10.5t25.5 -10.5t10.5 -25.5t-10.5 -25.5
t-25.5 -10.5t-25.5 10.5t-10.5 25.5z" />
    <glyph glyph-name="uniE695" unicode="&#xe695;" 
d="M624 310h98v-98h-98v98zM461 310h99v-98h-99v98zM298 310h99v-98h-99v98zM461 165h99v-99h-99v99zM298 165h99v-99h-99v99zM801 581h-31h-8h-33v82h-99v-164q-6 0 -11.5 3.5t-8.5 8.5t-3 12v58h-169v82h-99v-164q-6 0 -11.5 3.5t-8.5 8.5t-3 12v58h-25h-15h-57
q-26 0 -44 -18.5t-18 -43.5v-39v-45v-442q3 -24 20.5 -40t41.5 -16h583q23 0 40.5 16t20.5 40l1 6v436v24v60q-1 17 -9 31t-22.5 22.5t-31.5 8.5zM797 6h-574v364h574v-364z" />
    <glyph glyph-name="uniE696" unicode="&#xe696;" 
d="M311 543q17 0 29 12t12 29v83q0 4 -0.5 8t-1.5 7l-4 6q-1 3 -3.5 6t-5 5t-5.5 4t-6.5 3t-7 1.5t-7.5 0.5q-17 0 -29 -12t-12 -29v-82q0 -28 26 -39q8 -3 15 -3v0zM705 543q6 0 12.5 2t11.5 6t9 9t6 11.5t2 12.5v83q0 5 -1 9t-2.5 7.5t-4 7t-5 6t-6 5t-7 4t-7.5 2
t-8.5 0.5t-8.5 -0.5t-7.5 -2t-7 -4t-5.5 -5.5l-6 -6q-2 -3 -3.5 -6.5t-2 -7.5t-0.5 -9v-82q0 -6 1 -11.5t3.5 -10t6.5 -8t8.5 -6.5t10 -4.5t11.5 -1.5v0zM907 585v-716h-798v716h92v-14q0 -39 28 -67.5t68 -28.5h27q27 0 49 13t34.5 35.5t12.5 47.5v14h173v-14
q0 -39 28.5 -67.5t67.5 -28.5h28q40 0 68 28.5t28 67.5v14h94v0zM920 626h-147v-55q0 -23 -16 -39t-39 -16h-27q-23 0 -39 16t-16 39v55h-256v-55q0 -23 -16 -39t-39 -16h-27q-23 0 -39 16t-16 39v55h-148q-11 0 -19 -8t-8 -20v-743q0 -11 8 -19t19 -8h826q8 0 14 3.5
t9.5 10t3.5 13.5v743q0 12 -8 20t-20 8v0zM813 306q0 -10 -7.5 -17.5t-18.5 -7.5h-102q-11 0 -18.5 7.5t-7.5 17.5v26q0 5 2 10t5.5 8.5t8.5 5.5t10 2h102q11 0 18.5 -7.5t7.5 -18.5v-26v0zM550 306q0 -5 -2 -9.5t-5.5 -8t-8 -5.5t-9.5 -2h-103q-10 0 -17.5 7.5t-7.5 17.5
v26q0 11 7.5 18.5t17.5 7.5h103q10 0 17.5 -7.5t7.5 -18.5v-26v0zM314 306q0 -10 -7.5 -17.5t-18.5 -7.5h-102q-11 0 -18.5 7.5t-7.5 17.5v26q0 11 7.5 18.5t18.5 7.5h102q11 0 18.5 -7.5t7.5 -18.5v-26v0zM813 172q0 -11 -7.5 -18.5t-18.5 -7.5h-102q-11 0 -18.5 7.5
t-7.5 18.5v26q0 5 2 9.5t5.5 8t8.5 5.5t10 2h102q4 0 7 -1t6 -2.5t5.5 -4t4 -5t2.5 -6t1 -6.5v-26v0zM550 172q0 -4 -1 -8t-3.5 -7t-5.5 -5.5t-7 -4t-8 -1.5h-103q-10 0 -17.5 7.5t-7.5 18.5v26q0 10 7.5 17.5t17.5 7.5h103q3 0 6.5 -1t6.5 -2.5t5 -3.5l4 -6q2 -2 2.5 -5.5
t0.5 -6.5v-26v0zM314 172q0 -11 -7.5 -18.5t-18.5 -7.5h-102q-11 0 -18.5 7.5t-7.5 18.5v26q0 5 2 9.5t5.5 8t8 5.5t10.5 2h102q5 0 10 -2t8.5 -5.5t5.5 -8t2 -9.5v-26v0zM813 38q0 -11 -7.5 -18.5t-18.5 -7.5h-102q-11 0 -18.5 7.5t-7.5 18.5v25q0 5 2 10t5.5 8.5t8.5 5.5
t10 2h102q11 0 18.5 -7.5t7.5 -18.5v-25v0zM550 38q0 -5 -1 -8.5t-3.5 -7t-5.5 -5.5t-7 -3.5t-8 -1.5h-103q-10 0 -17.5 7.5t-7.5 18.5v25q0 5 2 10t5.5 8.5t8 5.5t9.5 2h103q10 0 17.5 -7.5t7.5 -18.5v-25v0zM314 38q0 -11 -7.5 -18.5t-18.5 -7.5h-102q-11 0 -18.5 7.5
t-7.5 18.5v25q0 11 7.5 18.5t18.5 7.5h102q5 0 10 -2t8.5 -5.5t5.5 -8.5t2 -10v-25v0zM852 303z" />
    <glyph glyph-name="uniE697" unicode="&#xe697;" 
d="M731 373q-20 0 -36.5 -9.5t-26.5 -26.5t-10 -37q0 -30 21.5 -51.5t52 -21.5t51.5 21.5t21 52t-21 51.5t-52 21zM731 264q-7 0 -14 3t-12 7.5t-7.5 11.5t-2.5 14q0 16 10.5 26.5t25.5 10.5t26 -10.5t11 -26t-11 -26t-26 -10.5zM293 373q-15 0 -28.5 -5.5t-23.5 -15.5
t-15.5 -23.5t-5.5 -28.5q0 -19 9.5 -36t26.5 -27t37 -10q30 0 51.5 21.5t21.5 51.5q0 44 -38 65q-17 8 -35 8zM293 264q-10 0 -18.5 5t-13.5 13t-5 18t5 18.5t13.5 13.5t18.5 5q15 0 25.5 -10.5t10.5 -26t-10.5 -26t-25.5 -10.5zM512 684q-114 0 -211 -49t-153 -133.5
t-56 -184.5q0 -105 68 -200q5 -8 6 -23.5t-1 -33t-7 -39t-10 -38t-11 -34t-8 -23.5t-4 -9q9 2 23.5 6t53 14.5t70 17.5t63 11t43.5 1q56 -17 134 -17q114 0 211 49t153 133.5t56 184.5t-56 184.5t-153 133.5t-211 49zM512 -12q-57 0 -117 16q-35 10 -212 -33q1 3 2.5 8t6 19
t8 27t7.5 29.5t6 29t2 22.5t-3 14q-26 25 -44.5 56.5t-29 68t-10.5 73.5q0 89 51.5 165t140 120t192.5 44t192.5 -44t140 -120t51.5 -165.5t-51.5 -165.5t-140 -120t-192.5 -44zM512 373q-30 0 -51.5 -21t-21.5 -51.5t21.5 -52t51.5 -21.5t51.5 21.5t21.5 51.5q0 20 -9.5 37
t-26.5 26.5t-37 9.5zM512 264q-15 0 -26 10.5t-11 26t11 26t26 10.5q10 0 18.5 -5t13.5 -13.5t5 -18.5q0 -15 -11 -25.5t-26 -10.5z" />
    <glyph glyph-name="uniE698" unicode="&#xe698;" 
d="M495 731q-156 0 -270 -106q-112 -104 -126 -255q-2 -19 -2 -37q0 -108 53.5 -200t145 -145t199.5 -53t200 53t145 145t53 200q0 81 -31.5 154.5t-84.5 127t-127 85t-155 31.5zM523 45l-267 267v157l94 95h158l267 -267z" />
    <glyph glyph-name="uniE699" unicode="&#xe699;" 
d="M864 499q-14 27 -35 52t-48 46q-111 89 -268.5 89t-269.5 -89q-53 -43 -83 -98q-30 -58 -30 -122q0 -93 62 -169q55 -68 143 -105l-18 -161l149 85l66 41q72 3 137.5 27t116.5 66q53 43 81 99t28 117q0 32 -7.5 62.5t-23.5 59.5zM760 192q-96 -79 -235 -83h-5l-75 -46
l-78 -45l13 111l-15 6q-88 33 -141 98q-18 22 -29.5 45.5t-17.5 48t-6 50.5q0 73 45.5 134.5t124.5 97.5t171 36q47 0 91 -9.5t81.5 -27t69 -42t54 -54t34.5 -64.5t12 -71q0 -107 -94 -185zM378 391zM334 391q0 19 13 31.5t31 12.5t30.5 -12.5t12.5 -31.5q0 -29 -26 -40
q-9 -3 -17 -3t-14.5 2t-12 6t-9.5 9.5t-6 12t-2 13.5zM514 391zM470 391q0 12 6 22t16 16t22 6q7 0 13.5 -2t12 -6t9.5 -9.5t6 -12t2 -14.5q0 -18 -12.5 -30.5t-30.5 -12.5q-8 0 -14.5 2t-12 6t-9.5 9.5t-6 12t-2 13.5zM650 391zM606 391q0 19 13 31.5t31 12.5q9 0 17 -3.5
t13.5 -9.5t9 -14t3.5 -17q0 -11 -5.5 -21.5t-15.5 -16t-22 -5.5q-9 0 -17 3.5t-14 9t-9.5 14t-3.5 16.5z" />
    <glyph glyph-name="uniE69A" unicode="&#xe69a;" 
d="M641 239q61 35 97 96.5t36 134.5q0 72 -35.5 133.5t-97 97.5t-134.5 36q-110 0 -188 -78.5t-78 -188.5q0 -74 37 -136t100 -97q-102 -41 -166 -133t-64 -205q0 -5 1.5 -9.5t4 -8.5t5.5 -7.5t7 -6t9 -3.5t10 -1q15 0 25.5 10.5t10.5 25.5q0 121 85.5 206t205.5 85
t205 -83.5t87 -202.5v-2v-3q0 -5 1 -9.5t3.5 -8.5t6 -7.5t7.5 -6t8.5 -3.5t9.5 -1q10 0 18 4.5t13 13t5 18.5q0 115 -65.5 208t-169.5 132zM507.5 275q-80.5 0 -138 57t-57.5 138t57.5 138t138 57t138 -57t57.5 -138t-57.5 -138t-138 -57z" />
    <glyph glyph-name="uniE69B" unicode="&#xe69b;" 
d="M217 206h-25q-11 0 -19.5 -5.5t-14 -14t-5.5 -19.5v-25q0 -16 11.5 -27.5t27.5 -11.5h25q16 0 27.5 11.5t11.5 27.5v25q0 6 -1.5 11t-4 9t-6 7.5t-8 6t-9 4t-10.5 1.5zM217 436h-25q-11 0 -19.5 -5t-14 -14t-5.5 -20v-25q0 -16 11.5 -27t27.5 -11h25q16 0 27.5 11
t11.5 27v25q0 16 -11.5 27.5t-27.5 11.5zM971 819h-153v-64q0 -15 -11 -26.5t-27 -11.5h-26q-16 0 -27 11.5t-11 26.5v64h-409v-64q0 -15 -11.5 -26.5t-27.5 -11.5h-25q-16 0 -27 11.5t-11 26.5v64h-154q-21 0 -36 -15t-15 -36v-843q0 -22 15 -37t36 -15h460h164h3
q64 0 119.5 17t95.5 46t69 67.5t44 83.5t16 93h1v12v65v511q0 11 -4 20.5t-11 16t-16.5 10.5t-20.5 4zM734 -69q50 76 40 188q12 -2 32 -5t69 -1t84 16q-22 -79 -79 -130.5t-146 -67.5zM971 227q0 -14 -1 -28q-86 -53 -254 -19q1 -7 3 -18.5t3 -45.5t-3 -64.5t-19 -66.5
t-40 -60h-5h-578q-11 0 -18.5 7t-7.5 18v614q0 10 7.5 17.5t18.5 7.5h869q11 0 18 -7.5t7 -17.5v-337zM831 436h-26q-16 0 -27 -11.5t-11 -27.5v-25q0 -16 11 -27t27 -11h26q16 0 27 11t11 27v25q0 11 -5 20t-14 14t-19 5zM422 206h-26q-16 0 -27 -11.5t-11 -27.5v-25
q0 -16 11 -27.5t27 -11.5h26q16 0 27 11.5t11 27.5v25q0 11 -5 19.5t-14 14t-19 5.5zM626 436h-25q-16 0 -27.5 -11.5t-11.5 -27.5v-25q0 -16 11.5 -27t27.5 -11h25q16 0 27.5 11t11.5 27v25q0 16 -11.5 27.5t-27.5 11.5zM422 436h-26q-16 0 -27 -11.5t-11 -27.5v-25
q0 -16 11 -27t27 -11h26q16 0 27 11t11 27v25q0 16 -11 27.5t-27 11.5zM754 743h26q5 0 9 3.5t4 8.5v128q0 6 -4 9.5t-9 3.5h-26q-5 0 -9 -3.5t-4 -9.5v-128q2 -11 13 -12zM243 743h25q4 0 7 1.5t4.5 4.5t1.5 6v128q0 4 -1.5 7t-4.5 4.5t-7 1.5h-25q-5 0 -9 -3.5t-4 -9.5
v-128q0 -3 2 -6t4.5 -4.5t6.5 -1.5z" />
    <glyph glyph-name="uniE69C" unicode="&#xe69c;" 
d="M512 701q80 0 153.5 -30.5t129.5 -87.5q14 -14 27 -29.5t23.5 -31.5t20 -33.5t17 -35.5t13 -36.5t9.5 -37.5t6 -39t2 -40q0 -80 -30.5 -153.5t-87.5 -129.5q-37 -38 -82.5 -64.5t-96.5 -40t-104 -13.5q-80 0 -153.5 30.5t-130 87t-87 130t-30.5 153.5q0 53 13.5 104
t40 96.5t64.5 82.5q56 57 129.5 87.5t153.5 30.5zM512 748q-90 0 -171.5 -34t-145 -97.5t-97.5 -145t-34 -171.5t34 -171.5t97.5 -145t145 -97.5t171.5 -34t171.5 34t145 97.5t97.5 145t34 171.5q0 45 -9 88t-25.5 83t-41 77t-56 68.5t-68 56t-77 41t-83.5 25.5t-88 9z
M512 116zM635.5 519.5q-44.5 39.5 -115.5 39.5q-82 0 -129 -47.5t-47 -130.5q0 -4 1.5 -8t3.5 -7.5t5 -6t6.5 -4.5t7.5 -3.5t9 -1.5q13 0 22 9t10 22v1v1v0q1 122 107 122q21 0 38 -6t30 -18q27 -24 27 -61q0 -43 -50 -88l-24 -22q-7 -6 -13.5 -12.5t-11.5 -12t-9 -11
t-7.5 -10.5t-5.5 -10q-10 -24 -10 -77v-1v-2q0 -6 2.5 -11.5t6.5 -9.5t9.5 -6.5t11.5 -2.5q12 0 21 8t10 20v11q0 18 6 35t17.5 32.5t28.5 29.5q87 71 87 136q0 64 -44.5 103.5zM512 69zM471 69q0 17 12 29t29 12t29 -12t12 -29q0 -11 -5.5 -20.5t-15 -15t-20.5 -5.5
q-17 0 -29 12t-12 29z" />
    <glyph glyph-name="uniE69D" unicode="&#xe69d;" 
d="M833 165q22 0 29 7t7 28t-24 39l-2 3q-73 56 -127 77q46 39 72 94.5t26 118.5q0 119 -86 201q-82 79 -195 79q-116 0 -198 -82t-82 -198q0 -63 26 -118.5t72 -94.5q-96 -37 -170 -107t-116 -166t-42 -203q0 -22 10 -35.5t30 -13.5q9 0 14.5 2.5t9 6.5t5 11t2 13t0.5 16
q0 68 16 131.5t51 119t85.5 96t124.5 63.5t162 22q70 -1 144 -26t123 -66q16 -13 29 -17zM533 329q-69 1 -119 31.5t-72.5 75t-22.5 96.5q0 50 24.5 98.5t75 81.5t115.5 33q56 0 99 -19.5t67.5 -51.5t36 -68.5t11.5 -75.5q0 -36 -16.5 -73t-44 -65.5t-68.5 -46t-86 -16.5z
M627 30q0 -6 1 -11t3.5 -9t6.5 -7.5t8 -6t9 -4.5t11 -2.5t12 -0.5h272q22 0 36.5 10.5t14.5 30.5q0 39 -51 39h-272q-23 0 -37 -9.5t-14 -29.5zM950 -135h-272q-23 0 -37 -9.5t-14 -29.5q0 -10 4 -17.5t11 -12t16 -6.5t20 -2h272q15 0 26 3.5t18 12.5t7 22q0 39 -51 39z" />
    <glyph glyph-name="uniE69E" unicode="&#xe69e;" 
d="M104 352q-11 0 -20 -5.5t-14 -14.5t-5 -19v-50q0 -16 11.5 -27.5t27.5 -11.5h816q16 0 27.5 11.5t11.5 27.5v50q0 16 -11.5 27.5t-27.5 11.5h-816zM577 696q0 11 -5 20t-14 14t-20 5h-49q-17 0 -28 -11.5t-11 -27.5v-816q0 -16 11 -27.5t28 -11.5h49q16 0 27.5 11.5
t11.5 27.5v816z" />
    <glyph glyph-name="uniE69F" unicode="&#xe69f;" 
d="M380 77q-20 0 -35 14l-278 269q-6 6 -10 13t-5 15t0 16t4.5 15t9.5 13q14 16 35.5 16t36.5 -14l242 -234l506 502q15 15 36 15t36 -15t15 -36.5t-15 -36.5l-542 -537q-15 -15 -36 -15z" />
    <glyph glyph-name="uniE6A0" unicode="&#xe6a0;" 
d="M485 625q11 23 27 23t27 -23l64 -136q11 -23 37 -42.5t52 -23.5l138 -21q25 -4 30.5 -20t-12.5 -34l-102 -104q-18 -19 -28 -50.5t-6 -56.5l25 -150q4 -25 -9.5 -34.5t-35.5 3.5l-125 68q-15 8 -35 11t-40 0t-35 -11l-125 -68q-22 -13 -35.5 -3.5t-9.5 34.5l25 150
q4 25 -6 56.5t-28 50.5l-102 104q-18 18 -12.5 34t30.5 20l138 21q26 4 52 23.5t37 42.5z" />
    <glyph glyph-name="uniE6A1" unicode="&#xe6a1;" 
d="M424 -212l-6 1q-82 22 -139 68q-52 42 -80 102q-25 54 -28.5 118t8.5 116.5t34 99.5q4 8 14 26.5t16 27.5q5 6 17 22q20 26 32.5 43.5t30.5 49.5t25 63.5t2 60.5q-2 8 2 15t12 10q16 8 28 -7q6 -7 14 -20.5t21.5 -53.5t15.5 -82q25 42 42.5 93t24 94.5t8.5 84.5t-5 63
q-4 16 9.5 25t26.5 0q67 -47 127.5 -126t103.5 -177q95 -213 70 -399q-16 -117 -80.5 -197.5t-172.5 -118.5q-7 -3 -15 -0.5t-12 9.5q-10 15 2 29q52 60 44 98q-2 11 -10.5 23.5t-16.5 21t-24 23.5q-12 13 -18.5 19.5t-17.5 19.5t-17.5 23t-13.5 24t-11 29q-14 58 16 129
q-105 -68 -129 -156q-30 -109 63 -247q5 -8 7 -10q4 -6 4 -13q0 -10 -7 -17t-16 -7h-1zM388 497q-4 -13 -9 -26t-12 -26q-10 -20 -24.5 -42t-23 -33.5t-22.5 -29.5q-4 -6 -6 -8.5t-4.5 -6t-4.5 -5.5q-4 -7 -13.5 -24t-13.5 -23q-19 -40 -29.5 -86.5t-7.5 -103.5t24 -104
q38 -81 126 -123q-70 127 -40 238q37 136 222 225q16 8 28 -5.5t3 -28.5q-16 -24 -26.5 -46t-16.5 -39.5t-7 -34.5t-0.5 -29t6.5 -26t10.5 -22.5t15 -21t17 -19t18.5 -19.5q19 -18 28.5 -28.5t20.5 -28.5t15 -35q7 -32 -7 -66q70 44 104 108t44 134q15 109 -16 231.5
t-90 224t-132 167.5q1 -68 -16 -144q-34 -147 -118 -240q-12 -13 -28 -5t-13 25q13 65 -2 126z" />
    <glyph glyph-name="uniE6A2" unicode="&#xe6a2;" 
d="M399 -1q-5 4 -11.5 12t-18 37.5t-11.5 63.5t19.5 90t62.5 117l2 -2l5 -5q4 -4 7.5 -8.5t8 -10.5t8 -12t6.5 -12.5t5 -12.5q1 1 3.5 3t9.5 10.5t12.5 18t13 26t11 35t6.5 44t-1 53.5q4 -3 12.5 -9.5t30.5 -28.5t40 -47t36.5 -65t26.5 -82t2.5 -99t-28.5 -116q7 2 19.5 6.5
t43.5 24t54.5 44t42.5 69.5t19.5 98.5t-27.5 132t-87 169.5q-7 -62 -27 -83q-1 4 -2 12t-9 31.5t-19.5 46.5t-35.5 54.5t-54.5 59t-79 56.5t-106.5 50q4 -9 10.5 -24t15.5 -60t7.5 -88t-25 -98t-70.5 -98q-20 47 -47 88q-1 -4 -2 -11t-5.5 -27t-11.5 -38t-20.5 -39.5
t-30.5 -36.5q-9 -7 -16.5 -26.5t-10 -47.5t-0.5 -60t16 -64.5t37 -61t65 -50t98 -29.5z" />
  </font>
</defs>
</svg>
